#N canvas 1603 86 954 463 10;
#X obj 36 299 vsl 15 128 0 127 0 0 empty b-1 b1 0 -9 0 10 -262144 -1
-1 4800 1;
#X obj 76 299 vsl 15 128 0 127 0 0 empty b-2 b2 0 -9 0 10 -262144 -1
-1 4800 1;
#X obj 115 299 vsl 15 128 0 127 0 0 empty b-3 b3 0 -9 0 10 -262144
-1 -1 4800 1;
#X obj 155 299 vsl 15 128 0 127 0 0 empty b-4 b4 0 -9 0 10 -262144
-1 -1 4800 1;
#X obj 195 299 vsl 15 128 0 127 0 0 empty b-5 b5 0 -9 0 10 -262144
-1 -1 4800 1;
#X obj 235 299 vsl 15 128 0 127 0 0 empty b-6 b6 0 -9 0 10 -262144
-1 -1 4800 1;
#X obj 275 299 vsl 15 128 0 127 0 0 empty b-7 b7 0 -9 0 10 -262144
-1 -1 4800 1;
#X obj 315 299 vsl 15 128 0 127 0 0 empty b-8 b8 0 -9 0 10 -262144
-1 -1 4800 1;
#X obj 355 299 vsl 15 128 0 127 0 0 empty b-9 b9 0 -9 0 10 -262144
-1 -1 4800 1;
#X obj 395 299 vsl 15 128 0 127 0 0 empty b-10 b10 0 -9 0 10 -262144
-1 -1 4800 1;
#X obj 435 299 vsl 15 128 0 127 0 0 empty b-11 b11 0 -9 0 10 -262144
-1 -1 4800 1;
#X obj 475 299 vsl 15 128 0 127 0 0 empty b-12 b12 0 -9 0 10 -262144
-1 -1 4800 1;
#X obj 515 299 vsl 15 128 0 127 0 0 empty b-13 b13 0 -9 0 10 -262144
-1 -1 4800 1;
#X obj 555 299 vsl 15 128 0 127 0 0 empty b-14 b14 0 -9 0 10 -262144
-1 -1 4800 1;
#X obj 595 299 vsl 15 128 0 127 0 0 empty b-15 b15 0 -9 0 10 -262144
-1 -1 4800 1;
#X obj 635 299 vsl 15 128 0 127 0 0 empty b-16 b16 0 -9 0 10 -262144
-1 -1 4800 1;
#X obj 75 64 tgl 40 0 empty kick_2 empty 17 7 0 10 -258113 -1 -1 0
127;
#X obj 155 64 tgl 40 0 empty kick_4 empty 17 7 0 10 -258113 -1 -1 0
127;
#X obj 36 64 tgl 40 0 empty kick_1 empty 17 7 0 10 -258113 -1 -1 127
127;
#X obj 115 64 tgl 40 0 empty kick_3 empty 17 7 0 10 -258113 -1 -1 0
127;
#X obj 235 64 tgl 40 0 empty kick_6 empty 17 7 0 10 -261234 -1 -1 0
127;
#X obj 315 64 tgl 40 0 empty kick_8 empty 17 7 0 10 -261234 -1 -1 0
127;
#X obj 195 64 tgl 40 0 empty kick_5 empty 17 7 0 10 -261234 -1 -1 127
127;
#X obj 275 64 tgl 40 0 empty kick_7 empty 17 7 0 10 -261234 -1 -1 0
127;
#X obj 556 64 tgl 40 0 empty kick_14 empty 17 7 0 10 -261234 -1 -1
0 127;
#X obj 636 64 tgl 40 0 empty kick_16 empty 17 7 0 10 -261234 -1 -1
0 127;
#X obj 516 64 tgl 40 0 empty kick_13 empty 17 7 0 10 -261234 -1 -1
127 127;
#X obj 596 64 tgl 40 0 empty kick_15 empty 17 7 0 10 -261234 -1 -1
0 127;
#X obj 396 64 tgl 40 0 empty kick_10 empty 17 7 0 10 -258113 -1 -1
0 127;
#X obj 476 64 tgl 40 0 empty kick_12 empty 17 7 0 10 -258113 -1 -1
0 127;
#X obj 356 64 tgl 40 0 empty kick_9 empty 17 7 0 10 -258113 -1 -1 127
127;
#X obj 436 64 tgl 40 0 empty kick_11 empty 17 7 0 10 -258113 -1 -1
0 127;
#X obj 75 178 tgl 40 0 empty hh_2 empty 17 7 0 10 -159808 -1 -1 0 127
;
#X obj 155 178 tgl 40 0 empty hh_4 empty 17 7 0 10 -159808 -1 -1 0
127;
#X obj 36 178 tgl 40 0 empty hh_1 empty 17 7 0 10 -159808 -1 -1 0 127
;
#X obj 115 178 tgl 40 0 empty hh_3 empty 17 7 0 10 -159808 -1 -1 127
127;
#X obj 235 178 tgl 40 0 empty hh_6 empty 17 7 0 10 -232576 -1 -1 0
127;
#X obj 315 178 tgl 40 0 empty hh_8 empty 17 7 0 10 -232576 -1 -1 0
127;
#X obj 195 178 tgl 40 0 empty hh_5 empty 17 7 0 10 -232576 -1 -1 0
127;
#X obj 275 178 tgl 40 0 empty hh_7 empty 17 7 0 10 -232576 -1 -1 127
127;
#X obj 555 178 tgl 40 0 empty hh_14 empty 17 7 0 10 -232576 -1 -1 0
127;
#X obj 635 178 tgl 40 0 empty hh_16 empty 17 7 0 10 -232576 -1 -1 0
127;
#X obj 515 178 tgl 40 0 empty hh_13 empty 17 7 0 10 -232576 -1 -1 0
127;
#X obj 595 178 tgl 40 0 empty hh_15 empty 17 7 0 10 -232576 -1 -1 127
127;
#X obj 395 178 tgl 40 0 empty hh_10 empty 17 7 0 10 -159808 -1 -1 0
127;
#X obj 475 178 tgl 40 0 empty hh_12 empty 17 7 0 10 -159808 -1 -1 0
127;
#X obj 355 178 tgl 40 0 empty hh_9 empty 17 7 0 10 -159808 -1 -1 0
127;
#X obj 435 178 tgl 40 0 empty hh_11 empty 17 7 0 10 -159808 -1 -1 127
127;
#X obj 75 238 tgl 40 0 empty misc_2 empty 17 7 0 10 -4034 -1 -1 0 127
;
#X obj 155 238 tgl 40 0 empty misc_4 empty 17 7 0 10 -4034 -1 -1 0
127;
#X obj 36 238 tgl 40 0 empty misc_1 empty 17 7 0 10 -4034 -1 -1 127
127;
#X obj 115 238 tgl 40 0 empty misc_3 empty 17 7 0 10 -4034 -1 -1 127
127;
#X obj 235 238 tgl 40 0 empty misc_6 empty 17 7 0 10 -204786 -1 -1
0 127;
#X obj 315 238 tgl 40 0 empty misc_8 empty 17 7 0 10 -204786 -1 -1
0 127;
#X obj 195 238 tgl 40 0 empty misc_5 empty 17 7 0 10 -204786 -1 -1
127 127;
#X obj 275 238 tgl 40 0 empty misc_7 empty 17 7 0 10 -204786 -1 -1
127 127;
#X obj 555 238 tgl 40 0 empty misc_14 empty 17 7 0 10 -204786 -1 -1
0 127;
#X obj 635 238 tgl 40 0 empty misc_16 empty 17 7 0 10 -204786 -1 -1
0 127;
#X obj 515 238 tgl 40 0 empty misc_13 empty 17 7 0 10 -204786 -1 -1
127 127;
#X obj 595 238 tgl 40 0 empty misc_15 empty 17 7 0 10 -204786 -1 -1
127 127;
#X obj 395 238 tgl 40 0 empty misc_10 empty 17 7 0 10 -4034 -1 -1 0
127;
#X obj 475 238 tgl 40 0 empty misc_12 empty 17 7 0 10 -4034 -1 -1 0
127;
#X obj 355 238 tgl 40 0 empty misc_9 empty 17 7 0 10 -4034 -1 -1 127
127;
#X obj 435 238 tgl 40 0 empty misc_11 empty 17 7 0 10 -4034 -1 -1 127
127;
#X obj 75 121 tgl 40 0 empty sn_2 empty 17 7 0 10 -257985 -1 -1 0 127
;
#X obj 155 121 tgl 40 0 empty sn_4 empty 17 7 0 10 -257985 -1 -1 0
127;
#X obj 36 121 tgl 40 0 empty sn_1 empty 17 7 0 10 -257985 -1 -1 0 127
;
#X obj 115 121 tgl 40 0 empty sn_3 empty 17 7 0 10 -257985 -1 -1 0
127;
#X obj 235 121 tgl 40 0 empty sn_6 empty 17 7 0 10 -262130 -1 -1 0
127;
#X obj 315 121 tgl 40 0 empty sn_8 empty 17 7 0 10 -262130 -1 -1 0
127;
#X obj 195 121 tgl 40 0 empty sn_5 empty 17 7 0 10 -262130 -1 -1 127
127;
#X obj 275 121 tgl 40 0 empty sn_7 empty 17 7 0 10 -262130 -1 -1 0
127;
#X obj 555 121 tgl 40 0 empty sn_14 empty 17 7 0 10 -262130 -1 -1 0
127;
#X obj 635 121 tgl 40 0 empty sn_16 empty 17 7 0 10 -262130 -1 -1 0
127;
#X obj 515 121 tgl 40 0 empty sn_13 empty 17 7 0 10 -262130 -1 -1 127
127;
#X obj 595 121 tgl 40 0 empty sn_15 empty 17 7 0 10 -262130 -1 -1 0
127;
#X obj 395 121 tgl 40 0 empty sn_10 empty 17 7 0 10 -257985 -1 -1 0
127;
#X obj 475 121 tgl 40 0 empty sn_12 empty 17 7 0 10 -257985 -1 -1 0
127;
#X obj 355 121 tgl 40 0 empty sn_9 empty 17 7 0 10 -257985 -1 -1 0
127;
#X obj 435 121 tgl 40 0 empty sn_11 empty 17 7 0 10 -257985 -1 -1 0
127;
#X floatatom 36 435 5 0 0 0 - - -, f 5;
#X floatatom 76 435 5 0 0 0 - - -, f 5;
#X floatatom 115 435 5 0 0 0 - - -, f 5;
#X floatatom 155 435 5 0 0 0 - - -, f 5;
#X floatatom 195 435 5 0 0 0 - - -, f 5;
#X floatatom 235 435 5 0 0 0 - - -, f 5;
#X floatatom 275 435 5 0 0 0 - - -, f 5;
#X floatatom 355 435 5 0 0 0 - - -, f 5;
#X floatatom 395 435 5 0 0 0 - - -, f 5;
#X floatatom 315 435 5 0 0 0 - - -, f 5;
#X floatatom 435 435 5 0 0 0 - - -, f 5;
#X floatatom 475 435 5 0 0 0 - - -, f 5;
#X floatatom 515 435 5 0 0 0 - - -, f 5;
#X floatatom 555 435 5 0 0 0 - - -, f 5;
#X floatatom 595 435 5 0 0 0 - - -, f 5;
#X floatatom 635 435 5 0 0 0 - - -, f 5;
#X obj 34 17 hradio 40 1 0 16 stepCounter toStepCounter empty 0 -8
0 10 -262144 -1 -1 4;
#N canvas 2270 541 954 464 deetszz 0;
#N canvas 1714 303 1416 386 kickSeq 0;
#X floatatom 82 101 5 0 0 0 - - -, f 5;
#X obj 40 55 inlet;
#X floatatom 42 99 5 0 0 0 - - -, f 5;
#X obj 42 78 unpack;
#X obj 95 220 tgl 40 0 kick_2 empty k2 17 7 0 10 -258113 -1 -1 0 127
;
#X obj 175 220 tgl 40 0 kick_4 empty k4 17 7 0 10 -258113 -1 -1 0 127
;
#X obj 56 220 tgl 40 0 kick_1 empty k1 17 7 0 10 -258113 -1 -1 127
127;
#X obj 135 220 tgl 40 0 kick_3 empty k3 17 7 0 10 -258113 -1 -1 0 127
;
#X obj 255 220 tgl 40 0 kick_6 empty k6 17 7 0 10 -261234 -1 -1 0 127
;
#X obj 335 220 tgl 40 0 kick_8 empty k8 17 7 0 10 -261234 -1 -1 0 127
;
#X obj 215 220 tgl 40 0 kick_5 empty k5 17 7 0 10 -261234 -1 -1 127
127;
#X obj 295 220 tgl 40 0 kick_7 empty k7 17 7 0 10 -261234 -1 -1 0 127
;
#X obj 575 220 tgl 40 0 kick_14 empty k14 17 7 0 10 -261234 -1 -1 0
127;
#X obj 655 220 tgl 40 0 kick_16 empty k16 17 7 0 10 -261234 -1 -1 0
127;
#X obj 535 220 tgl 40 0 kick_13 empty k13 17 7 0 10 -261234 -1 -1 127
127;
#X obj 615 220 tgl 40 0 kick_15 empty k15 17 7 0 10 -261234 -1 -1 0
127;
#X obj 415 220 tgl 40 0 kick_10 empty k10 17 7 0 10 -258113 -1 -1 0
127;
#X obj 495 220 tgl 40 0 kick_12 empty k12 17 7 0 10 -258113 -1 -1 0
127;
#X obj 375 220 tgl 40 0 kick_9 empty k9 17 7 0 10 -258113 -1 -1 127
127;
#X obj 455 220 tgl 40 0 kick_11 empty k11 17 7 0 10 -258113 -1 -1 0
127;
#X obj 119 465 float;
#X obj 153 434 vsl 15 15 0 127 0 0 empty kick_1 empty 0 -9 0 10 -258113
-262144 -1 1400 1;
#X floatatom 119 492 5 0 0 0 - - -, f 5;
#X obj 157 465 float;
#X floatatom 157 492 5 0 0 0 - - -, f 5;
#X obj 196 465 float;
#X floatatom 196 492 5 0 0 0 - - -, f 5;
#X obj 237 465 float;
#X floatatom 237 493 5 0 0 0 - - -, f 5;
#X obj 175 436 vsl 15 15 0 127 0 0 empty kick_2 empty 0 -9 0 10 -258113
-262144 -1 0 1;
#X obj 199 441 vsl 15 15 0 127 0 0 empty kick_3 empty 0 -9 0 10 -258113
-262144 -1 0 1;
#X obj 225 440 vsl 15 15 0 127 0 0 empty kick_4 empty 0 -9 0 10 -258113
-262144 -1 0 1;
#X obj 279 467 float;
#X obj 297 438 vsl 15 15 0 127 0 0 empty kick_5 empty 0 -9 0 10 -258113
-262144 -1 1400 1;
#X floatatom 279 494 5 0 0 0 - - -, f 5;
#X obj 317 467 float;
#X floatatom 317 494 5 0 0 0 - - -, f 5;
#X obj 356 467 float;
#X floatatom 356 494 5 0 0 0 - - -, f 5;
#X obj 397 467 float;
#X floatatom 397 495 5 0 0 0 - - -, f 5;
#X obj 335 438 vsl 15 15 0 127 0 0 empty kick_6 empty 0 -9 0 10 -258113
-262144 -1 0 1;
#X obj 374 438 vsl 15 15 0 127 0 0 empty kick_7 empty 0 -9 0 10 -258113
-262144 -1 0 1;
#X obj 399 439 vsl 15 15 0 127 0 0 empty kick_8 empty 0 -9 0 10 -258113
-262144 -1 0 1;
#X obj 436 468 float;
#X obj 468 437 vsl 15 15 0 127 0 0 empty kick_9 empty 0 -9 0 10 -258113
-262144 -1 1400 1;
#X floatatom 436 495 5 0 0 0 - - -, f 5;
#X obj 474 468 float;
#X floatatom 474 495 5 0 0 0 - - -, f 5;
#X obj 513 468 float;
#X floatatom 513 495 5 0 0 0 - - -, f 5;
#X obj 554 468 float;
#X floatatom 554 496 5 0 0 0 - - -, f 5;
#X obj 492 439 vsl 15 15 0 127 0 0 empty kick_10 empty 0 -9 0 10 -258113
-262144 -1 0 1;
#X obj 515 436 vsl 15 15 0 127 0 0 empty kick_11 empty 0 -9 0 10 -258113
-262144 -1 0 1;
#X obj 550 439 vsl 15 15 0 127 0 0 empty kick_12 empty 0 -9 0 10 -258113
-262144 -1 0 1;
#X obj 593 471 float;
#X obj 611 442 vsl 15 15 0 127 0 0 empty kick_13 empty 0 -9 0 10 -258113
-262144 -1 1400 1;
#X floatatom 593 498 5 0 0 0 - - -, f 5;
#X obj 631 471 float;
#X floatatom 631 498 5 0 0 0 - - -, f 5;
#X obj 670 471 float;
#X floatatom 670 498 5 0 0 0 - - -, f 5;
#X obj 711 471 float;
#X floatatom 711 499 5 0 0 0 - - -, f 5;
#X obj 650 442 vsl 15 15 0 38 0 0 empty kick_14 empty 0 -9 0 10 -258113
-262144 -1 0 1;
#X obj 688 442 vsl 15 15 0 127 0 0 empty kick_15 empty 0 -9 0 10 -258113
-262144 -1 0 1;
#X obj 729 442 vsl 15 15 0 127 0 0 empty kick_16 empty 0 -9 0 10 -258113
-262144 -1 0 1;
#X obj 144 353 select 0 1 2 3 4 5 6 7 8 9 10 11 12 13 14 15;
#X obj 199 539 outlet;
#X floatatom 144 327 5 0 0 2 stepCounter stepCounter -, f 5;
#X floatatom 1036 204 5 0 0 0 - - -, f 5;
#X obj 1042 156 bng 15 250 50 0 empty empty clearKick 17 7 0 10 -262144
-1 -1;
#X obj 657 140 tgl 40 0 toggBtn empty clock 5 -7 0 10 -262144 -1 -1
0 1;
#X floatatom 733 143 5 0 0 2 kickmute - Kickmute, f 5;
#X obj 877 174 bng 15 250 50 0 halftime empty 1/2 -1 -7 0 10 -262144
-1 -1;
#X obj 907 163 bng 15 250 50 0 normaltime empty normal -10 -7 0 10
-262144 -1 -1;
#X obj 948 151 bng 15 250 50 0 doubletime empty x2 1 -7 0 10 -262144
-1 -1;
#X floatatom 185 29 5 0 0 2 kickStep_toggle kickStep_toggle -, f 5
;
#X obj 300 71 select 1 2 3 4 5 6 7 8 9 10 11 12 13 14 15 16 81 82 83
84 85 86 88 89 90 91 92 94 94, f 85;
#X connect 1 0 3 0;
#X connect 3 0 2 0;
#X connect 3 1 0 0;
#X connect 20 0 22 0;
#X connect 21 0 20 1;
#X connect 22 0 69 0;
#X connect 23 0 24 0;
#X connect 24 0 69 0;
#X connect 25 0 26 0;
#X connect 26 0 69 0;
#X connect 27 0 28 0;
#X connect 28 0 69 0;
#X connect 29 0 23 1;
#X connect 30 0 25 1;
#X connect 31 0 27 1;
#X connect 32 0 34 0;
#X connect 33 0 32 1;
#X connect 34 0 69 0;
#X connect 35 0 36 0;
#X connect 36 0 69 0;
#X connect 37 0 38 0;
#X connect 38 0 69 0;
#X connect 39 0 40 0;
#X connect 40 0 69 0;
#X connect 41 0 35 1;
#X connect 42 0 37 1;
#X connect 43 0 39 1;
#X connect 44 0 46 0;
#X connect 45 0 44 1;
#X connect 46 0 69 0;
#X connect 47 0 48 0;
#X connect 48 0 69 0;
#X connect 49 0 50 0;
#X connect 50 0 69 0;
#X connect 51 0 52 0;
#X connect 52 0 69 0;
#X connect 53 0 47 1;
#X connect 54 0 49 1;
#X connect 55 0 51 1;
#X connect 56 0 58 0;
#X connect 57 0 56 1;
#X connect 58 0 69 0;
#X connect 59 0 60 0;
#X connect 60 0 69 0;
#X connect 61 0 62 0;
#X connect 62 0 69 0;
#X connect 63 0 64 0;
#X connect 64 0 69 0;
#X connect 65 0 59 1;
#X connect 66 0 61 1;
#X connect 67 0 63 1;
#X connect 68 0 20 0;
#X connect 68 1 23 0;
#X connect 68 3 27 0;
#X connect 68 4 32 0;
#X connect 68 5 35 0;
#X connect 68 6 37 0;
#X connect 68 7 39 0;
#X connect 68 8 44 0;
#X connect 68 9 47 0;
#X connect 68 10 49 0;
#X connect 68 11 51 0;
#X connect 68 12 56 0;
#X connect 68 13 59 0;
#X connect 68 14 61 0;
#X connect 68 15 63 0;
#X connect 70 0 68 0;
#X connect 71 0 15 0;
#X connect 71 0 13 0;
#X connect 71 0 12 0;
#X connect 71 0 14 0;
#X connect 71 0 17 0;
#X connect 71 0 19 0;
#X connect 71 0 16 0;
#X connect 71 0 18 0;
#X connect 71 0 9 0;
#X connect 71 0 11 0;
#X connect 71 0 8 0;
#X connect 71 0 10 0;
#X connect 71 0 5 0;
#X connect 71 0 7 0;
#X connect 71 0 4 0;
#X connect 71 0 6 0;
#X connect 78 0 79 0;
#X connect 79 0 6 0;
#X connect 79 1 4 0;
#X connect 79 2 7 0;
#X connect 79 3 5 0;
#X connect 79 4 10 0;
#X connect 79 5 8 0;
#X connect 79 6 11 0;
#X connect 79 7 9 0;
#X connect 79 8 18 0;
#X connect 79 9 16 0;
#X connect 79 10 19 0;
#X connect 79 11 17 0;
#X connect 79 12 14 0;
#X connect 79 13 12 0;
#X connect 79 14 15 0;
#X connect 79 15 13 0;
#X connect 79 16 73 0;
#X connect 79 17 74 0;
#X connect 79 21 75 0;
#X connect 79 22 76 0;
#X connect 79 23 77 0;
#X connect 79 24 72 0;
#X restore 69 167 pd kickSeq;
#N canvas 1603 613 1914 464 snareSeq 0;
#X obj 52 202 tgl 40 0 sn_2 empty sn2 17 7 0 10 -257985 -1 -1 0 127
;
#X obj 132 202 tgl 40 0 sn_4 empty sn4 17 7 0 10 -257985 -1 -1 0 127
;
#X obj 13 202 tgl 40 0 sn_1 empty sn1 17 7 0 10 -257985 -1 -1 0 127
;
#X obj 92 202 tgl 40 0 sn_3 empty sn2 17 7 0 10 -257985 -1 -1 0 127
;
#X obj 212 202 tgl 40 0 sn_6 empty sn6 17 7 0 10 -262130 -1 -1 0 127
;
#X obj 292 202 tgl 40 0 sn_8 empty sn8 17 7 0 10 -262130 -1 -1 0 127
;
#X obj 172 202 tgl 40 0 sn_5 empty sn5 17 7 0 10 -262130 -1 -1 127
127;
#X obj 252 202 tgl 40 0 sn_7 empty sn7 17 7 0 10 -262130 -1 -1 0 127
;
#X obj 532 202 tgl 40 0 sn_14 empty sn14 17 7 0 10 -262130 -1 -1 0
127;
#X obj 612 202 tgl 40 0 sn_16 empty sn16 17 7 0 10 -262130 -1 -1 0
127;
#X obj 492 202 tgl 40 0 sn_13 empty sn13 17 7 0 10 -262130 -1 -1 127
127;
#X obj 572 202 tgl 40 0 sn_15 empty sn15 17 7 0 10 -262130 -1 -1 0
127;
#X obj 372 202 tgl 40 0 sn_10 empty sn10 17 7 0 10 -257985 -1 -1 0
127;
#X obj 452 202 tgl 40 0 sn_12 empty sn12 17 7 0 10 -257985 -1 -1 0
127;
#X obj 332 202 tgl 40 0 sn_9 empty sn9 17 7 0 10 -257985 -1 -1 0 127
;
#X obj 412 202 tgl 40 0 sn_11 empty sn11 17 7 0 10 -257985 -1 -1 0
127;
#X obj 231 427 float;
#X obj 739 349 vsl 15 15 0 127 0 0 empty empty empty 0 -9 0 10 -258113
-262144 -1 0 1;
#X floatatom 231 454 5 0 0 0 - - -, f 5;
#X obj 269 427 float;
#X floatatom 269 454 5 0 0 0 - - -, f 5;
#X obj 308 427 float;
#X floatatom 308 454 5 0 0 0 - - -, f 5;
#X obj 349 427 float;
#X floatatom 349 455 5 0 0 0 - - -, f 5;
#X obj 777 349 vsl 15 15 0 127 0 0 empty empty empty 0 -9 0 10 -258113
-262144 -1 0 1;
#X obj 816 349 vsl 15 15 0 127 0 0 empty empty empty 0 -9 0 10 -258113
-262144 -1 0 1;
#X obj 840 351 vsl 15 15 0 127 0 0 empty empty empty 0 -9 0 10 -258113
-262144 -1 0 1;
#X obj 391 429 float;
#X obj 899 351 vsl 15 15 0 127 0 0 empty empty empty 0 -9 0 10 -258113
-262144 -1 1400 1;
#X floatatom 391 456 5 0 0 0 - - -, f 5;
#X obj 429 429 float;
#X floatatom 429 456 5 0 0 0 - - -, f 5;
#X obj 468 429 float;
#X floatatom 468 456 5 0 0 0 - - -, f 5;
#X obj 509 429 float;
#X floatatom 509 457 5 0 0 0 - - -, f 5;
#X obj 937 351 vsl 15 15 0 127 0 0 empty empty empty 0 -9 0 10 -258113
-262144 -1 0 1;
#X obj 976 351 vsl 15 15 0 127 0 0 empty empty empty 0 -9 0 10 -258113
-262144 -1 0 1;
#X obj 1017 351 vsl 15 15 0 127 0 0 empty empty empty 0 -9 0 10 -258113
-262144 -1 0 1;
#X obj 548 430 float;
#X obj 1063 349 vsl 15 15 0 127 0 0 empty empty empty 0 -9 0 10 -258113
-262144 -1 0 1;
#X floatatom 548 457 5 0 0 0 - - -, f 5;
#X obj 586 430 float;
#X floatatom 586 457 5 0 0 0 - - -, f 5;
#X obj 625 430 float;
#X floatatom 625 457 5 0 0 0 - - -, f 5;
#X obj 666 430 float;
#X floatatom 666 458 5 0 0 0 - - -, f 5;
#X obj 1094 352 vsl 15 15 0 127 0 0 empty empty empty 0 -9 0 10 -258113
-262144 -1 0 1;
#X obj 1133 352 vsl 15 15 0 127 0 0 empty empty empty 0 -9 0 10 -258113
-262144 -1 0 1;
#X obj 1179 342 vsl 15 15 0 127 0 0 empty empty empty 0 -9 0 10 -258113
-262144 -1 0 1;
#X obj 705 433 float;
#X obj 1220 348 vsl 15 15 0 127 0 0 empty empty empty 0 -9 0 10 -258113
-262144 -1 1400 1;
#X floatatom 705 460 5 0 0 0 - - -, f 5;
#X obj 743 433 float;
#X floatatom 743 460 5 0 0 0 - - -, f 5;
#X obj 782 433 float;
#X floatatom 782 460 5 0 0 0 - - -, f 5;
#X obj 823 433 float;
#X floatatom 823 461 5 0 0 0 - - -, f 5;
#X obj 1258 349 vsl 15 15 0 38 0 0 empty empty empty 0 -9 0 10 -258113
-262144 -1 0 1;
#X obj 1290 355 vsl 15 15 0 127 0 0 empty empty empty 0 -9 0 10 -258113
-262144 -1 0 1;
#X obj 1331 355 vsl 15 15 0 127 0 0 empty empty empty 0 -9 0 10 -258113
-262144 -1 0 1;
#X obj 159 351 select 0 1 2 3 4 5 6 7 8 9 10 11 12 13 14 15;
#X obj 292 503 outlet;
#X floatatom 140 329 5 0 0 2 stepCounter stepCounter -, f 5;
#X obj 776 290 tgl 40 0 empty sn_2 sn2 17 7 0 10 -257985 -1 -1 0 127
;
#X obj 856 290 tgl 40 0 empty sn_4 sn4 17 7 0 10 -257985 -1 -1 0 127
;
#X obj 737 290 tgl 40 0 empty sn_1 sn1 17 7 0 10 -257985 -1 -1 0 127
;
#X obj 816 290 tgl 40 0 empty sn_3 sn2 17 7 0 10 -257985 -1 -1 0 127
;
#X obj 936 290 tgl 40 0 empty sn_6 sn6 17 7 0 10 -262130 -1 -1 0 127
;
#X obj 1016 290 tgl 40 0 empty sn_8 sn8 17 7 0 10 -262130 -1 -1 0 127
;
#X obj 896 290 tgl 40 0 empty sn_5 sn5 17 7 0 10 -262130 -1 -1 127
127;
#X obj 976 290 tgl 40 0 empty sn_7 sn7 17 7 0 10 -262130 -1 -1 0 127
;
#X obj 1256 290 tgl 40 0 empty sn_14 sn14 17 7 0 10 -262130 -1 -1 0
127;
#X obj 1336 290 tgl 40 0 empty sn_16 sn16 17 7 0 10 -262130 -1 -1 0
127;
#X obj 1216 290 tgl 40 0 empty sn_13 sn13 17 7 0 10 -262130 -1 -1 127
127;
#X obj 1296 290 tgl 40 0 empty sn_15 sn15 17 7 0 10 -262130 -1 -1 0
127;
#X obj 1096 290 tgl 40 0 empty sn_10 sn10 17 7 0 10 -257985 -1 -1 0
127;
#X obj 1176 290 tgl 40 0 empty sn_12 sn12 17 7 0 10 -257985 -1 -1 0
127;
#X obj 1056 290 tgl 40 0 empty sn_9 sn9 17 7 0 10 -257985 -1 -1 0 127
;
#X obj 1136 290 tgl 40 0 empty sn_11 sn11 17 7 0 10 -257985 -1 -1 0
127;
#X floatatom 1109 184 5 0 0 0 - - -, f 5;
#X obj 1110 158 bng 15 250 50 0 empty empty clearSnare 17 7 0 10 -262144
-1 -1;
#X floatatom 747 151 5 0 0 2 snaremute - snmute, f 5;
#X obj 662 158 tgl 40 0 toggBtn empty clock 5 -7 0 10 -262144 -1 -1
0 1;
#X obj 846 159 bng 15 250 50 0 halftime empty 1/2 -1 -7 0 10 -262144
-1 -1;
#X obj 876 148 bng 15 250 50 0 normaltime empty normal -10 -7 0 10
-262144 -1 -1;
#X obj 917 136 bng 15 250 50 0 doubletime empty x2 1 -7 0 10 -262144
-1 -1;
#X floatatom 283 24 5 0 0 3 snareStep_toggle snareStep_toggle -, f
5;
#X obj 117 86 select 1 2 3 4 5 6 7 8 9 10 11 12 13 14 15 16 81 82 83
84 85 86 88 89 90 91 92 94 94, f 87;
#X connect 16 0 18 0;
#X connect 17 0 16 1;
#X connect 18 0 65 0;
#X connect 19 0 20 0;
#X connect 20 0 65 0;
#X connect 21 0 22 0;
#X connect 22 0 65 0;
#X connect 23 0 24 0;
#X connect 24 0 65 0;
#X connect 25 0 19 1;
#X connect 26 0 21 1;
#X connect 27 0 23 1;
#X connect 28 0 30 0;
#X connect 29 0 28 1;
#X connect 30 0 65 0;
#X connect 31 0 32 0;
#X connect 32 0 65 0;
#X connect 33 0 34 0;
#X connect 34 0 65 0;
#X connect 35 0 36 0;
#X connect 36 0 65 0;
#X connect 37 0 31 1;
#X connect 38 0 33 1;
#X connect 39 0 35 1;
#X connect 40 0 42 0;
#X connect 41 0 40 1;
#X connect 42 0 65 0;
#X connect 43 0 44 0;
#X connect 44 0 65 0;
#X connect 45 0 46 0;
#X connect 46 0 65 0;
#X connect 47 0 48 0;
#X connect 48 0 65 0;
#X connect 49 0 43 1;
#X connect 50 0 45 1;
#X connect 51 0 47 1;
#X connect 52 0 54 0;
#X connect 53 0 52 1;
#X connect 54 0 65 0;
#X connect 55 0 56 0;
#X connect 56 0 65 0;
#X connect 57 0 58 0;
#X connect 58 0 65 0;
#X connect 59 0 60 0;
#X connect 60 0 65 0;
#X connect 61 0 55 1;
#X connect 62 0 57 1;
#X connect 63 0 59 1;
#X connect 64 0 16 0;
#X connect 64 1 19 0;
#X connect 64 2 21 0;
#X connect 64 3 23 0;
#X connect 64 4 28 0;
#X connect 64 5 31 0;
#X connect 64 6 33 0;
#X connect 64 7 35 0;
#X connect 64 8 40 0;
#X connect 64 9 43 0;
#X connect 64 10 45 0;
#X connect 64 11 47 0;
#X connect 64 12 52 0;
#X connect 64 13 55 0;
#X connect 64 14 57 0;
#X connect 64 15 59 0;
#X connect 66 0 64 0;
#X connect 67 0 25 0;
#X connect 68 0 27 0;
#X connect 69 0 17 0;
#X connect 70 0 26 0;
#X connect 71 0 37 0;
#X connect 72 0 39 0;
#X connect 73 0 29 0;
#X connect 74 0 38 0;
#X connect 75 0 61 0;
#X connect 76 0 63 0;
#X connect 77 0 53 0;
#X connect 78 0 62 0;
#X connect 79 0 49 0;
#X connect 80 0 51 0;
#X connect 81 0 41 0;
#X connect 82 0 50 0;
#X connect 83 0 9 0;
#X connect 83 0 11 0;
#X connect 83 0 8 0;
#X connect 83 0 10 0;
#X connect 83 0 13 0;
#X connect 83 0 15 0;
#X connect 83 0 12 0;
#X connect 83 0 14 0;
#X connect 83 0 5 0;
#X connect 83 0 7 0;
#X connect 83 0 4 0;
#X connect 83 0 6 0;
#X connect 83 0 1 0;
#X connect 83 0 3 0;
#X connect 83 0 0 0;
#X connect 83 0 2 0;
#X connect 84 0 83 0;
#X connect 90 0 91 0;
#X connect 91 0 2 0;
#X connect 91 1 0 0;
#X connect 91 2 3 0;
#X connect 91 3 1 0;
#X connect 91 4 6 0;
#X connect 91 5 4 0;
#X connect 91 6 7 0;
#X connect 91 7 5 0;
#X connect 91 8 14 0;
#X connect 91 9 12 0;
#X connect 91 10 15 0;
#X connect 91 11 13 0;
#X connect 91 12 10 0;
#X connect 91 13 8 0;
#X connect 91 14 11 0;
#X connect 91 15 9 0;
#X connect 91 16 86 0;
#X connect 91 17 85 0;
#X connect 91 21 87 0;
#X connect 91 22 88 0;
#X connect 91 23 89 0;
#X connect 91 24 84 0;
#X restore 236 168 pd snareSeq;
#N canvas -23 433 1600 839 hihatSeq 0;
#X obj 167 273 tgl 40 0 hh_2 empty hh2 17 7 0 10 -159808 -1 -1 0 127
;
#X obj 247 273 tgl 40 0 hh_4 empty hh4 17 7 0 10 -159808 -1 -1 0 127
;
#X obj 128 273 tgl 40 0 hh_1 empty hh1 17 7 0 10 -159808 -1 -1 0 127
;
#X obj 207 273 tgl 40 0 hh_3 empty hh2 17 7 0 10 -159808 -1 -1 127
127;
#X obj 327 273 tgl 40 0 hh_6 empty hh6 17 7 0 10 -232576 -1 -1 0 127
;
#X obj 407 273 tgl 40 0 hh_8 empty hh8 17 7 0 10 -232576 -1 -1 0 127
;
#X obj 287 273 tgl 40 0 hh_5 empty hh5 17 7 0 10 -232576 -1 -1 0 127
;
#X obj 367 273 tgl 40 0 hh_7 empty hh7 17 7 0 10 -232576 -1 -1 127
127;
#X obj 647 273 tgl 40 0 hh_14 empty hh14 17 7 0 10 -232576 -1 -1 0
127;
#X obj 727 273 tgl 40 0 hh_16 empty hh16 17 7 0 10 -232576 -1 -1 0
127;
#X obj 607 273 tgl 40 0 hh_13 empty hh13 17 7 0 10 -232576 -1 -1 0
127;
#X obj 687 273 tgl 40 0 hh_15 empty hh15 17 7 0 10 -232576 -1 -1 127
127;
#X obj 487 273 tgl 40 0 hh_10 empty hh10 17 7 0 10 -159808 -1 -1 0
127;
#X obj 567 273 tgl 40 0 hh_12 empty hh12 17 7 0 10 -159808 -1 -1 0
127;
#X obj 447 273 tgl 40 0 hh_9 empty hh9 17 7 0 10 -159808 -1 -1 0 127
;
#X obj 527 273 tgl 40 0 hh_11 empty hh11 17 7 0 10 -159808 -1 -1 127
127;
#X obj 62 590 float;
#X obj 852 566 vsl 15 15 0 127 0 0 empty empty empty 0 -9 0 10 -258113
-262144 -1 0 1;
#X floatatom 62 617 5 0 0 0 - - -, f 5;
#X obj 100 590 float;
#X floatatom 100 617 5 0 0 0 - - -, f 5;
#X obj 139 590 float;
#X floatatom 139 617 5 0 0 0 - - -, f 5;
#X obj 180 590 float;
#X floatatom 180 618 5 0 0 0 - - -, f 5;
#X obj 890 566 vsl 15 15 0 127 0 0 empty empty empty 0 -9 0 10 -258113
-262144 -1 0 1;
#X obj 929 566 vsl 15 15 0 127 0 0 empty empty empty 0 -9 0 10 -258113
-262144 -1 1400 1;
#X obj 959 566 vsl 15 15 0 127 0 0 empty empty empty 0 -9 0 10 -258113
-262144 -1 0 1;
#X obj 222 592 float;
#X obj 1012 568 vsl 15 15 0 127 0 0 empty empty empty 0 -9 0 10 -258113
-262144 -1 0 1;
#X floatatom 222 619 5 0 0 0 - - -, f 5;
#X obj 260 592 float;
#X floatatom 260 619 5 0 0 0 - - -, f 5;
#X obj 299 592 float;
#X floatatom 299 619 5 0 0 0 - - -, f 5;
#X obj 340 592 float;
#X floatatom 340 620 5 0 0 0 - - -, f 5;
#X obj 1050 568 vsl 15 15 0 127 0 0 empty empty empty 0 -9 0 10 -258113
-262144 -1 0 1;
#X obj 1089 568 vsl 15 15 0 127 0 0 empty empty empty 0 -9 0 10 -258113
-262144 -1 1400 1;
#X obj 1108 569 vsl 15 15 0 127 0 0 empty empty empty 0 -9 0 10 -258113
-262144 -1 0 1;
#X obj 379 593 float;
#X obj 1187 569 vsl 15 15 0 127 0 0 empty empty empty 0 -9 0 10 -258113
-262144 -1 0 1;
#X floatatom 379 620 5 0 0 0 - - -, f 5;
#X obj 417 593 float;
#X floatatom 417 620 5 0 0 0 - - -, f 5;
#X obj 456 593 float;
#X floatatom 456 620 5 0 0 0 - - -, f 5;
#X obj 497 593 float;
#X floatatom 497 621 5 0 0 0 - - -, f 5;
#X obj 1207 569 vsl 15 15 0 127 0 0 empty empty empty 0 -9 0 10 -258113
-262144 -1 0 1;
#X obj 1246 569 vsl 15 15 0 127 0 0 empty empty empty 0 -9 0 10 -258113
-262144 -1 1400 1;
#X obj 1273 569 vsl 15 15 0 127 0 0 empty empty empty 0 -9 0 10 -258113
-262144 -1 0 1;
#X obj 536 596 float;
#X obj 1326 572 vsl 15 15 0 127 0 0 empty empty empty 0 -9 0 10 -258113
-262144 -1 0 1;
#X floatatom 536 623 5 0 0 0 - - -, f 5;
#X obj 574 596 float;
#X floatatom 574 623 5 0 0 0 - - -, f 5;
#X obj 613 596 float;
#X floatatom 613 623 5 0 0 0 - - -, f 5;
#X obj 654 596 float;
#X floatatom 654 624 5 0 0 0 - - -, f 5;
#X obj 1365 572 vsl 15 15 0 38 0 0 empty empty empty 0 -9 0 10 -258113
-262144 -1 0 1;
#X obj 1403 572 vsl 15 15 0 127 0 0 empty empty empty 0 -9 0 10 -258113
-262144 -1 1400 1;
#X obj 1444 572 vsl 15 15 0 127 0 0 empty empty empty 0 -9 0 10 -258113
-262144 -1 0 1;
#X obj 107 491 select 0 1 2 3 4 5 6 7 8 9 10 11 12 13 14 15;
#X obj 123 666 outlet;
#X obj 862 506 tgl 40 0 empty hh_2 hh2 17 7 0 10 -159808 -1 -1 0 127
;
#X obj 942 506 tgl 40 0 empty hh_4 hh4 17 7 0 10 -159808 -1 -1 0 127
;
#X obj 823 506 tgl 40 0 empty hh_1 hh1 17 7 0 10 -159808 -1 -1 0 127
;
#X obj 902 506 tgl 40 0 empty hh_3 hh2 17 7 0 10 -159808 -1 -1 127
127;
#X obj 1022 506 tgl 40 0 empty hh_6 hh6 17 7 0 10 -232576 -1 -1 0 127
;
#X obj 1102 506 tgl 40 0 empty hh_8 hh8 17 7 0 10 -232576 -1 -1 0 127
;
#X obj 982 506 tgl 40 0 empty hh_5 hh5 17 7 0 10 -232576 -1 -1 0 127
;
#X obj 1062 506 tgl 40 0 empty hh_7 hh7 17 7 0 10 -232576 -1 -1 127
127;
#X obj 1342 506 tgl 40 0 empty hh_14 hh14 17 7 0 10 -232576 -1 -1 0
127;
#X obj 1422 506 tgl 40 0 empty hh_16 hh16 17 7 0 10 -232576 -1 -1 0
127;
#X obj 1302 506 tgl 40 0 empty hh_13 hh13 17 7 0 10 -232576 -1 -1 0
127;
#X obj 1382 506 tgl 40 0 empty hh_15 hh15 17 7 0 10 -232576 -1 -1 127
127;
#X obj 1182 506 tgl 40 0 empty hh_10 hh10 17 7 0 10 -159808 -1 -1 0
127;
#X obj 1262 506 tgl 40 0 empty hh_12 hh12 17 7 0 10 -159808 -1 -1 0
127;
#X obj 1142 506 tgl 40 0 empty hh_9 hh9 17 7 0 10 -159808 -1 -1 0 127
;
#X obj 1222 506 tgl 40 0 empty hh_11 hh11 17 7 0 10 -159808 -1 -1 127
127;
#X floatatom 88 469 5 0 0 2 stepCounter stepCounter -, f 5;
#X obj 1096 232 bng 15 250 50 0 empty empty clearHihats 17 7 0 10 -262144
-1 -1;
#X floatatom 1096 252 5 0 0 0 - - -, f 5;
#X floatatom 759 215 5 0 0 2 hhmute - hhmute, f 5;
#X obj 704 209 tgl 40 0 toggBtn empty clock 5 -7 0 10 -262144 -1 -1
0 1;
#X obj 849 216 bng 15 250 50 0 halftime empty 1/2 -1 -7 0 10 -262144
-1 -1;
#X obj 879 205 bng 15 250 50 0 normaltime empty normal -10 -7 0 10
-262144 -1 -1;
#X obj 920 193 bng 15 250 50 0 doubletime empty x2 1 -7 0 10 -262144
-1 -1;
#X obj 488 17 bng 15 250 50 0 empty empty empty 17 7 0 10 -262144 -1
-1;
#X obj 676 33 bng 15 250 50 0 empty empty empty 17 7 0 10 -262144 -1
-1;
#X obj 267 41 delay 10 1 msec;
#X obj 398 209 delay 10 1 msec;
#X floatatom 106 48 5 0 0 3 HHStep_toggle HHStep_toggle -, f 5;
#X obj 209 85 select 1 2 3 4 5 6 7 8 9 10 11 12 13 14 15 16 81 82 83
84 85 86 88 89 90 91 92 94 94, f 86;
#X connect 16 0 18 0;
#X connect 17 0 16 1;
#X connect 18 0 65 0;
#X connect 19 0 20 0;
#X connect 20 0 65 0;
#X connect 21 0 22 0;
#X connect 22 0 65 0;
#X connect 23 0 24 0;
#X connect 24 0 65 0;
#X connect 25 0 19 1;
#X connect 26 0 21 1;
#X connect 27 0 23 1;
#X connect 28 0 30 0;
#X connect 29 0 28 1;
#X connect 30 0 65 0;
#X connect 31 0 32 0;
#X connect 32 0 65 0;
#X connect 33 0 34 0;
#X connect 34 0 65 0;
#X connect 35 0 36 0;
#X connect 36 0 65 0;
#X connect 37 0 31 1;
#X connect 38 0 33 1;
#X connect 39 0 35 1;
#X connect 40 0 42 0;
#X connect 41 0 40 1;
#X connect 42 0 65 0;
#X connect 43 0 44 0;
#X connect 44 0 65 0;
#X connect 45 0 46 0;
#X connect 46 0 65 0;
#X connect 47 0 48 0;
#X connect 48 0 65 0;
#X connect 49 0 43 1;
#X connect 50 0 45 1;
#X connect 51 0 47 1;
#X connect 52 0 54 0;
#X connect 53 0 52 1;
#X connect 54 0 65 0;
#X connect 55 0 56 0;
#X connect 56 0 65 0;
#X connect 57 0 58 0;
#X connect 58 0 65 0;
#X connect 59 0 60 0;
#X connect 60 0 65 0;
#X connect 61 0 55 1;
#X connect 62 0 57 1;
#X connect 63 0 59 1;
#X connect 64 0 16 0;
#X connect 64 1 19 0;
#X connect 64 2 21 0;
#X connect 64 3 23 0;
#X connect 64 4 28 0;
#X connect 64 5 31 0;
#X connect 64 6 33 0;
#X connect 64 7 35 0;
#X connect 64 8 40 0;
#X connect 64 9 43 0;
#X connect 64 10 45 0;
#X connect 64 11 47 0;
#X connect 64 12 52 0;
#X connect 64 13 55 0;
#X connect 64 14 57 0;
#X connect 64 15 59 0;
#X connect 66 0 25 0;
#X connect 67 0 27 0;
#X connect 68 0 17 0;
#X connect 69 0 26 0;
#X connect 70 0 37 0;
#X connect 71 0 39 0;
#X connect 72 0 29 0;
#X connect 73 0 38 0;
#X connect 74 0 61 0;
#X connect 75 0 63 0;
#X connect 76 0 53 0;
#X connect 77 0 62 0;
#X connect 78 0 49 0;
#X connect 79 0 51 0;
#X connect 80 0 41 0;
#X connect 81 0 50 0;
#X connect 82 0 64 0;
#X connect 83 0 84 0;
#X connect 84 0 9 0;
#X connect 84 0 11 0;
#X connect 84 0 8 0;
#X connect 84 0 10 0;
#X connect 84 0 13 0;
#X connect 84 0 15 0;
#X connect 84 0 12 0;
#X connect 84 0 14 0;
#X connect 84 0 5 0;
#X connect 84 0 7 0;
#X connect 84 0 4 0;
#X connect 84 0 6 0;
#X connect 84 0 1 0;
#X connect 84 0 3 0;
#X connect 84 0 0 0;
#X connect 84 0 2 0;
#X connect 90 0 92 0;
#X connect 91 0 93 0;
#X connect 92 0 3 0;
#X connect 92 0 7 0;
#X connect 92 0 15 0;
#X connect 92 0 11 0;
#X connect 93 0 0 0;
#X connect 93 0 1 0;
#X connect 93 0 4 0;
#X connect 93 0 5 0;
#X connect 93 0 12 0;
#X connect 93 0 13 0;
#X connect 93 0 8 0;
#X connect 93 0 9 0;
#X connect 94 0 95 0;
#X connect 95 0 2 0;
#X connect 95 1 0 0;
#X connect 95 2 3 0;
#X connect 95 3 1 0;
#X connect 95 4 6 0;
#X connect 95 5 4 0;
#X connect 95 6 7 0;
#X connect 95 7 5 0;
#X connect 95 8 14 0;
#X connect 95 9 12 0;
#X connect 95 10 15 0;
#X connect 95 11 13 0;
#X connect 95 12 10 0;
#X connect 95 13 8 0;
#X connect 95 14 11 0;
#X connect 95 15 9 0;
#X connect 95 16 86 0;
#X connect 95 17 85 0;
#X connect 95 18 90 0;
#X connect 95 18 83 0;
#X connect 95 19 91 0;
#X connect 95 19 83 0;
#X connect 95 20 87 0;
#X connect 95 21 88 0;
#X connect 95 22 89 0;
#X connect 95 24 83 0;
#X restore 439 169 pd hihatSeq;
#N canvas 1600 86 1920 994 auxSeq 0;
#X obj 113 234 tgl 40 0 misc_2 empty misc2 17 7 0 10 -4034 -1 -1 0
127;
#X obj 193 234 tgl 40 0 misc_4 empty misc4 17 7 0 10 -4034 -1 -1 0
127;
#X obj 74 234 tgl 40 0 misc_1 empty misc1 17 7 0 10 -4034 -1 -1 127
127;
#X obj 153 234 tgl 40 0 misc_3 empty misc3 17 7 0 10 -4034 -1 -1 127
127;
#X obj 273 234 tgl 40 0 misc_6 empty misc6 17 7 0 10 -204786 -1 -1
0 127;
#X obj 353 234 tgl 40 0 misc_8 empty misc8 17 7 0 10 -204786 -1 -1
0 127;
#X obj 233 234 tgl 40 0 misc_5 empty misc5 17 7 0 10 -204786 -1 -1
127 127;
#X obj 313 234 tgl 40 0 misc_7 empty misc7 17 7 0 10 -204786 -1 -1
127 127;
#X obj 593 234 tgl 40 0 misc_14 empty misc14 17 7 0 10 -204786 -1 -1
0 127;
#X obj 673 234 tgl 40 0 misc_16 empty misc16 17 7 0 10 -204786 -1 -1
0 127;
#X obj 553 234 tgl 40 0 misc_13 empty misc13 17 7 0 10 -204786 -1 -1
127 127;
#X obj 633 234 tgl 40 0 misc_15 empty misc15 17 7 0 10 -204786 -1 -1
127 127;
#X obj 433 234 tgl 40 0 misc_10 empty misc10 17 7 0 10 -4034 -1 -1
0 127;
#X obj 513 234 tgl 40 0 misc_12 empty misc12 17 7 0 10 -4034 -1 -1
0 127;
#X obj 393 234 tgl 40 0 misc_9 empty misc9 17 7 0 10 -4034 -1 -1 127
127;
#X obj 473 234 tgl 40 0 misc_11 empty misc11 17 7 0 10 -4034 -1 -1
127 127;
#X obj 148 588 float;
#X obj 621 529 vsl 15 15 0 127 0 0 empty empty empty 0 -9 0 10 -258113
-262144 -1 1400 1;
#X floatatom 148 615 5 0 0 0 - - -, f 5;
#X obj 186 588 float;
#X floatatom 186 615 5 0 0 0 - - -, f 5;
#X obj 225 588 float;
#X floatatom 225 615 5 0 0 0 - - -, f 5;
#X obj 266 588 float;
#X floatatom 266 616 5 0 0 0 - - -, f 5;
#X obj 659 529 vsl 15 15 0 127 0 0 empty empty empty 0 -9 0 10 -258113
-262144 -1 0 1;
#X obj 698 529 vsl 15 15 0 127 0 0 empty empty empty 0 -9 0 10 -258113
-262144 -1 1400 1;
#X obj 728 529 vsl 15 15 0 127 0 0 empty empty empty 0 -9 0 10 -258113
-262144 -1 0 1;
#X obj 308 590 float;
#X obj 781 531 vsl 15 15 0 127 0 0 empty empty empty 0 -9 0 10 -258113
-262144 -1 1400 1;
#X floatatom 308 617 5 0 0 0 - - -, f 5;
#X obj 346 590 float;
#X floatatom 346 617 5 0 0 0 - - -, f 5;
#X obj 385 590 float;
#X floatatom 385 617 5 0 0 0 - - -, f 5;
#X obj 426 590 float;
#X floatatom 426 618 5 0 0 0 - - -, f 5;
#X obj 819 531 vsl 15 15 0 127 0 0 empty empty empty 0 -9 0 10 -258113
-262144 -1 0 1;
#X obj 858 531 vsl 15 15 0 127 0 0 empty empty empty 0 -9 0 10 -258113
-262144 -1 1400 1;
#X obj 877 532 vsl 15 15 0 127 0 0 empty empty empty 0 -9 0 10 -258113
-262144 -1 0 1;
#X obj 465 591 float;
#X obj 956 532 vsl 15 15 0 127 0 0 empty empty empty 0 -9 0 10 -258113
-262144 -1 1400 1;
#X floatatom 465 618 5 0 0 0 - - -, f 5;
#X obj 503 591 float;
#X floatatom 503 618 5 0 0 0 - - -, f 5;
#X obj 542 591 float;
#X floatatom 542 618 5 0 0 0 - - -, f 5;
#X obj 583 591 float;
#X floatatom 583 619 5 0 0 0 - - -, f 5;
#X obj 976 532 vsl 15 15 0 127 0 0 empty empty empty 0 -9 0 10 -258113
-262144 -1 0 1;
#X obj 1015 532 vsl 15 15 0 127 0 0 empty empty empty 0 -9 0 10 -258113
-262144 -1 1400 1;
#X obj 1042 532 vsl 15 15 0 127 0 0 empty empty empty 0 -9 0 10 -258113
-262144 -1 0 1;
#X obj 622 594 float;
#X obj 1095 535 vsl 15 15 0 127 0 0 empty empty empty 0 -9 0 10 -258113
-262144 -1 1400 1;
#X floatatom 622 621 5 0 0 0 - - -, f 5;
#X obj 660 594 float;
#X floatatom 660 621 5 0 0 0 - - -, f 5;
#X obj 699 594 float;
#X floatatom 699 621 5 0 0 0 - - -, f 5;
#X obj 740 594 float;
#X floatatom 740 622 5 0 0 0 - - -, f 5;
#X obj 1134 535 vsl 15 15 0 38 0 0 empty empty empty 0 -9 0 10 -258113
-262144 -1 0 1;
#X obj 1172 535 vsl 15 15 0 127 0 0 empty empty empty 0 -9 0 10 -258113
-262144 -1 1400 1;
#X obj 1213 535 vsl 15 15 0 127 0 0 empty empty empty 0 -9 0 10 -258113
-262144 -1 0 1;
#X obj 193 489 select 0 1 2 3 4 5 6 7 8 9 10 11 12 13 14 15;
#X obj 209 664 outlet;
#X floatatom 174 467 5 0 0 2 stepCounter stepCounter -, f 5;
#X obj 631 464 tgl 40 0 empty misc_2 misc2 17 7 0 10 -4034 -1 -1 0
127;
#X obj 711 464 tgl 40 0 empty misc_4 misc4 17 7 0 10 -4034 -1 -1 0
127;
#X obj 592 464 tgl 40 0 empty misc_1 misc1 17 7 0 10 -4034 -1 -1 127
127;
#X obj 671 464 tgl 40 0 empty misc_3 misc3 17 7 0 10 -4034 -1 -1 127
127;
#X obj 791 464 tgl 40 0 empty misc_6 misc6 17 7 0 10 -204786 -1 -1
0 127;
#X obj 871 464 tgl 40 0 empty misc_8 misc8 17 7 0 10 -204786 -1 -1
0 127;
#X obj 751 464 tgl 40 0 empty misc_5 misc5 17 7 0 10 -204786 -1 -1
127 127;
#X obj 831 464 tgl 40 0 empty misc_7 misc7 17 7 0 10 -204786 -1 -1
127 127;
#X obj 1111 464 tgl 40 0 empty misc_14 misc14 17 7 0 10 -204786 -1
-1 0 127;
#X obj 1191 464 tgl 40 0 empty misc_16 misc16 17 7 0 10 -204786 -1
-1 0 127;
#X obj 1071 464 tgl 40 0 empty misc_13 misc13 17 7 0 10 -204786 -1
-1 127 127;
#X obj 1151 464 tgl 40 0 empty misc_15 misc15 17 7 0 10 -204786 -1
-1 127 127;
#X obj 951 464 tgl 40 0 empty misc_10 misc10 17 7 0 10 -4034 -1 -1
0 127;
#X obj 1031 464 tgl 40 0 empty misc_12 misc12 17 7 0 10 -4034 -1 -1
0 127;
#X obj 911 464 tgl 40 0 empty misc_9 misc9 17 7 0 10 -4034 -1 -1 127
127;
#X obj 991 464 tgl 40 0 empty misc_11 misc11 17 7 0 10 -4034 -1 -1
127 127;
#X floatatom 51 187 5 0 0 0 - - -, f 5;
#X obj 61 158 bng 15 250 50 0 empty empty clearAux 17 7 0 10 -262144
-1 -1;
#X floatatom 962 273 5 0 0 2 miscmute - miscMute, f 5;
#X obj 905 275 tgl 40 0 toggBtn empty clock 5 -7 0 10 -262144 -1 -1
0 1;
#X floatatom 764 132 5 0 0 2 kickmute Kickmute -, f 5;
#X obj 810 219 bng 15 250 50 0 halftime empty 1/2 -1 -7 0 10 -262144
-1 -1;
#X obj 840 208 bng 15 250 50 0 normaltime empty normal -10 -7 0 10
-262144 -1 -1;
#X obj 881 196 bng 15 250 50 0 doubletime empty x2 1 -7 0 10 -262144
-1 -1;
#X obj 162 134 select 1 2 3 4 5 6 7 8 9 10 11 12 13 14 15 16 81 82
83 84 85 86 88 89 90 91 92 94 94, f 90;
#X floatatom 155 68 5 0 0 3 auxStep_toggle auxStep_toggle -, f 5;
#X connect 16 0 18 0;
#X connect 17 0 16 1;
#X connect 18 0 65 0;
#X connect 19 0 20 0;
#X connect 20 0 65 0;
#X connect 21 0 22 0;
#X connect 22 0 65 0;
#X connect 23 0 24 0;
#X connect 24 0 65 0;
#X connect 25 0 19 1;
#X connect 26 0 21 1;
#X connect 27 0 23 1;
#X connect 28 0 30 0;
#X connect 29 0 28 1;
#X connect 30 0 65 0;
#X connect 31 0 32 0;
#X connect 32 0 65 0;
#X connect 33 0 34 0;
#X connect 34 0 65 0;
#X connect 35 0 36 0;
#X connect 36 0 65 0;
#X connect 37 0 31 1;
#X connect 38 0 33 1;
#X connect 39 0 35 1;
#X connect 40 0 42 0;
#X connect 41 0 40 1;
#X connect 42 0 65 0;
#X connect 43 0 44 0;
#X connect 44 0 65 0;
#X connect 45 0 46 0;
#X connect 46 0 65 0;
#X connect 47 0 48 0;
#X connect 48 0 65 0;
#X connect 49 0 43 1;
#X connect 50 0 45 1;
#X connect 51 0 47 1;
#X connect 52 0 54 0;
#X connect 53 0 52 1;
#X connect 54 0 65 0;
#X connect 55 0 56 0;
#X connect 56 0 65 0;
#X connect 57 0 58 0;
#X connect 58 0 65 0;
#X connect 59 0 60 0;
#X connect 60 0 65 0;
#X connect 61 0 55 1;
#X connect 62 0 57 1;
#X connect 63 0 59 1;
#X connect 64 0 16 0;
#X connect 64 1 19 0;
#X connect 64 2 21 0;
#X connect 64 3 23 0;
#X connect 64 4 28 0;
#X connect 64 5 31 0;
#X connect 64 6 33 0;
#X connect 64 7 35 0;
#X connect 64 8 40 0;
#X connect 64 9 43 0;
#X connect 64 10 45 0;
#X connect 64 11 47 0;
#X connect 64 12 52 0;
#X connect 64 13 55 0;
#X connect 64 14 57 0;
#X connect 64 15 59 0;
#X connect 66 0 64 0;
#X connect 67 0 25 0;
#X connect 68 0 27 0;
#X connect 69 0 17 0;
#X connect 70 0 26 0;
#X connect 71 0 37 0;
#X connect 72 0 39 0;
#X connect 73 0 29 0;
#X connect 74 0 38 0;
#X connect 75 0 61 0;
#X connect 76 0 63 0;
#X connect 77 0 53 0;
#X connect 78 0 62 0;
#X connect 79 0 49 0;
#X connect 80 0 51 0;
#X connect 81 0 41 0;
#X connect 82 0 50 0;
#X connect 83 0 9 0;
#X connect 83 0 11 0;
#X connect 83 0 8 0;
#X connect 83 0 10 0;
#X connect 83 0 13 0;
#X connect 83 0 15 0;
#X connect 83 0 12 0;
#X connect 83 0 14 0;
#X connect 83 0 5 0;
#X connect 83 0 7 0;
#X connect 83 0 4 0;
#X connect 83 0 6 0;
#X connect 83 0 1 0;
#X connect 83 0 3 0;
#X connect 83 0 0 0;
#X connect 83 0 2 0;
#X connect 84 0 83 0;
#X connect 91 0 2 0;
#X connect 91 1 0 0;
#X connect 91 2 3 0;
#X connect 91 3 1 0;
#X connect 91 4 6 0;
#X connect 91 5 4 0;
#X connect 91 6 7 0;
#X connect 91 7 5 0;
#X connect 91 8 14 0;
#X connect 91 9 12 0;
#X connect 91 10 15 0;
#X connect 91 11 13 0;
#X connect 91 12 10 0;
#X connect 91 13 8 0;
#X connect 91 14 11 0;
#X connect 91 15 9 0;
#X connect 91 16 86 0;
#X connect 91 17 85 0;
#X connect 91 21 88 0;
#X connect 91 22 89 0;
#X connect 91 23 90 0;
#X connect 91 24 84 0;
#X connect 92 0 91 0;
#X restore 633 169 pd auxSeq;
#X obj 69 413 noteout;
#X obj 236 413 noteout;
#X obj 439 413 noteout;
#X obj 439 190 select 127;
#X obj 439 212 bng 15 250 50 0 empty empty empty 17 7 0 10 -262144
-1 -1;
#X obj 69 190 select 127;
#X obj 69 212 bng 15 250 50 0 empty empty empty 17 7 0 10 -262144 -1
-1;
#X obj 236 190 select 127;
#X obj 236 212 bng 15 250 50 0 empty empty empty 17 7 0 10 -262144
-1 -1;
#X msg 84 266 36;
#X msg 251 263 38;
#X msg 454 263 42;
#X obj 251 239 loadbang;
#X obj 84 245 loadbang;
#X obj 454 239 loadbang;
#X floatatom 255 377 5 0 0 2 snVelocitysnareVol snVelocity -, f 5
;
#X floatatom 87 376 5 0 0 2 KickVelocity KickVelocity -, f 5;
#X floatatom 458 377 5 0 0 2 hhVelocity hhVelocity -, f 5;
#X obj 439 342 int;
#X floatatom 265 311 5 0 0 1 snMIDInote adjustsnareMIDInote -, f 5
;
#X obj 236 342 int;
#N canvas 2795 535 450 300 SNscaleCC 0;
#X obj 129 88 + 25;
#X floatatom 186 195 5 0 0 3 adjustsnareMIDInote - adjustsnareMIDInote
, f 5;
#X obj 107 146 select 42 44 46 49 51 52;
#X obj 129 67 div 4;
#X floatatom 129 40 5 0 0 1 snMIDIn snareMIDInote -, f 5;
#X connect 0 0 2 0;
#X connect 2 6 1 0;
#X connect 3 0 0 0;
#X connect 4 0 3 0;
#X restore 265 293 pd SNscaleCC;
#N canvas 2819 86 450 300 HHscaleCC 0;
#X floatatom 74 167 5 0 0 3 adjustHHMIDInote - adjustHHMIDInote, f
5;
#X floatatom 74 29 5 0 0 2 hh-noteNum hhNoteNum -, f 5;
#X obj 74 80 + 42;
#X obj 74 59 div 4;
#X obj 20 120 select 43 45 47 48 50 52;
#X connect 1 0 3 0;
#X connect 2 0 4 0;
#X connect 3 0 2 0;
#X connect 4 6 0 0;
#X restore 471 293 pd HHscaleCC;
#X floatatom 471 311 5 0 0 1 HHatMIDInote adjustHHMIDInote -, f 5
;
#X obj 361 331 loadbang;
#X obj 541 336 loadbang;
#X obj 134 324 loadbang;
#X obj 69 342 int;
#X obj 633 413 noteout;
#X obj 633 190 select 127;
#X obj 633 212 bng 15 250 50 0 empty empty empty 17 7 0 10 -262144
-1 -1;
#X obj 648 239 loadbang;
#X floatatom 652 377 5 0 0 2 miscVelocity miscVelocity -, f 5;
#X obj 633 342 int;
#X obj 714 329 loadbang;
#X msg 648 263 0;
#X floatatom 672 298 5 0 0 3 rMiscNote MiscNote -, f 5;
#X obj 791 413 noteout;
#X obj 879 368 loadbang;
#X msg 877 389 9;
#X floatatom 818 298 5 0 0 0 - - -, f 5;
#X obj 818 260 bng 15 250 50 0 empty mute_Ch9 mute_Ch9 17 7 0 10 -262144
-1 -1;
#X msg 818 277 0;
#X obj 818 317 ctlout 7 9;
#X floatatom 810 378 5 0 0 0 bassVol bassVol -, f 5;
#X msg 542 358 10;
#X msg 714 351 10;
#X msg 361 353 10;
#X msg 134 346 10;
#N canvas 1603 613 954 464 basssequencer 0;
#X obj 56 132 tgl 50 1 empty L3 L3 17 7 0 10 -128992 -1 -1 0 1;
#X obj 305 30 tgl 50 1 empty R3 R3 17 7 0 10 -128992 -1 -1 0 1;
#X obj 355 30 tgl 50 0 empty R4 R4 17 7 0 10 -128992 -1 -1 0 4;
#X obj 255 30 tgl 50 1 empty R2 R2 17 7 0 10 -128992 -1 -1 0 1;
#X obj 205 30 tgl 50 1 empty R1 R1 17 7 0 10 -128992 -1 -1 0 1;
#X obj 56 82 tgl 50 1 empty L2 L2 17 7 0 10 -128992 -1 -1 0 1;
#X obj 56 32 tgl 50 1 empty L1 L1 17 7 0 10 -128992 -1 -1 0 1;
#X msg 106 132 8;
#X obj 56 182 tgl 50 1 empty L4 L4 17 7 0 10 -128992 -1 -1 0 1;
#X floatatom 242 134 5 0 0 0 - - -, f 5;
#X floatatom 376 114 6 0 0 0 gz_down GZ-AXIS_2 -, f 6;
#X floatatom 525 11 5 0 0 2 L_btns L_btns_on -, f 5;
#X obj 633 75 +;
#X obj 621 50 f, f 2;
#X obj 658 50 t b f;
#X floatatom 592 93 5 0 0 0 - - -, f 5;
#X obj 633 95 == 2;
#X floatatom 592 113 5 0 0 0 - - -, f 5;
#X obj 633 137 sel 1 0;
#X obj 633 117 change;
#X floatatom 658 29 5 0 0 2 R_btns R_btns -, f 5;
#X floatatom 592 135 5 0 0 0 - - -, f 5;
#X obj 683 169 + 1;
#X floatatom 519 119 5 0 0 0 - - -, f 5;
#X obj 633 169 f;
#X obj 633 189 mod 2;
#X obj 633 209 sel 1;
#X obj 518 159 tgl 15 0 empty empty empty 17 7 0 10 -262144 -1 -1 1
1;
#X floatatom 376 154 5 0 0 0 - - -, f 5;
#X obj 376 174 change;
#X floatatom 376 197 5 0 0 0 - - -, f 5;
#X obj 287 162 tgl 15 0 BassGZdown empty BassGZdown 17 7 0 10 -262144
-1 -1 0 1;
#X msg 205 80 48;
#X msg 106 32 50;
#X msg 255 80 52;
#X msg 106 82 53;
#X msg 305 80 55;
#X msg 355 80 57;
#X msg 106 183 59;
#X obj 242 181 spigot;
#X floatatom 482 181 5 0 0 0 - - -, f 5;
#X obj 376 133 > 149;
#X obj 300 292 vsl 15 128 0 127 0 0 b-1 empty b1 0 -9 0 10 -262144
-1 -1 4800 1;
#X obj 315 292 vsl 15 128 0 127 0 0 b-2 empty b2 0 -9 0 10 -262144
-1 -1 4800 1;
#X obj 330 292 vsl 15 128 0 127 0 0 b-3 empty b3 0 -9 0 10 -262144
-1 -1 4800 1;
#X obj 345 292 vsl 15 128 0 127 0 0 b-4 empty b4 0 -9 0 10 -262144
-1 -1 4800 1;
#X obj 398 292 vsl 15 128 0 127 0 0 b-5 empty b5 0 -9 0 10 -262144
-1 -1 4800 1;
#X obj 413 292 vsl 15 128 0 127 0 0 b-6 empty b6 0 -9 0 10 -262144
-1 -1 4800 1;
#X obj 428 292 vsl 15 128 0 127 0 0 b-7 empty b7 0 -9 0 10 -262144
-1 -1 4800 1;
#X obj 443 292 vsl 15 128 0 127 0 0 b-8 empty b8 0 -9 0 10 -262144
-1 -1 4800 1;
#X obj 476 292 vsl 15 128 0 127 0 0 b-9 empty b9 0 -9 0 10 -262144
-1 -1 4800 1;
#X obj 491 292 vsl 15 128 0 127 0 0 b-10 empty b10 0 -9 0 10 -262144
-1 -1 4800 1;
#X obj 506 292 vsl 15 128 0 127 0 0 b-11 empty b11 0 -9 0 10 -262144
-1 -1 4800 1;
#X obj 521 292 vsl 15 128 0 127 0 0 b-12 empty b12 0 -9 0 10 -262144
-1 -1 4800 1;
#X obj 558 292 vsl 15 128 0 127 0 0 b-13 empty b13 0 -9 0 10 -262144
-1 -1 4800 1;
#X obj 573 292 vsl 15 128 0 127 0 0 b-14 empty b14 0 -9 0 10 -262144
-1 -1 4800 1;
#X obj 588 292 vsl 15 128 0 127 0 0 b-15 empty b15 0 -9 0 10 -262144
-1 -1 4800 1;
#X obj 603 292 vsl 15 128 0 127 0 0 b-16 empty b16 0 -9 0 10 -262144
-1 -1 4800 1;
#X obj 327 248 route 0 1 2 3 4 5 6 7 8 9 10 11 12 13 14 15;
#X obj 585 425 int;
#X obj 538 425 int;
#X obj 608 425 int;
#X obj 561 425 int;
#X obj 362 425 int;
#X obj 315 425 int;
#X obj 385 425 int;
#X obj 338 425 int;
#X obj 478 425 int;
#X obj 431 425 int;
#X obj 502 425 int;
#X obj 455 425 int;
#X obj 693 425 int;
#X obj 646 425 int;
#X obj 716 425 int;
#X obj 669 425 int;
#X obj 25 407 select 0 1 2 3 4 5 6 7 8 9 10 11 12 13 14 15;
#X floatatom 82 388 5 0 0 2 stepCounter stepCounter -, f 5;
#N canvas 2001 490 450 457 countNotes 0;
#X obj 55 128 bng 15 250 50 0 empty empty add_1_to_noteON_counter 17
7 0 10 -262144 -1 -1;
#X obj 193 201 + 1;
#X obj 237 128 bng 15 250 50 0 empty empty Reset_noteON_counter 17
7 0 10 -262144 -1 -1;
#X floatatom 237 152 5 0 0 0 - - -, f 5;
#X floatatom 199 253 5 0 0 0 - - ONcount, f 5;
#X msg 147 151 1;
#X obj 147 201 int 1;
#X obj 237 101 inlet;
#X obj 55 100 inlet;
#X obj 147 336 outlet;
#X text 57 80 from ch3 note-ON velocity;
#X text 231 78 from "select 60";
#X text 275 151 reset value;
#X text 236 253 number of noteONs;
#X obj 147 298 mod 16;
#X connect 0 0 6 0;
#X connect 1 0 6 1;
#X connect 2 0 3 0;
#X connect 3 0 6 1;
#X connect 5 0 6 0;
#X connect 6 0 4 0;
#X connect 6 0 1 0;
#X connect 6 0 14 0;
#X connect 7 0 2 0;
#X connect 8 0 0 0;
#X connect 14 0 9 0;
#X restore 597 237 pd countNotes;
#X obj 510 239 pack;
#X floatatom 776 250 5 0 0 0 - - -, f 5;
#X floatatom 453 83 5 0 0 2 R_btns - R_btns, f 5;
#X obj 467 208 f;
#X obj 519 204 t b f;
#X obj 785 179 unpack;
#X floatatom 836 200 5 0 0 0 - - -, f 5;
#X floatatom 785 202 5 0 0 0 - - -, f 5;
#X obj 761 443 outlet;
#X msg 211 261 0;
#X text 229 228 hold for drumseq mode;
#X obj 117 257 tgl 50 1 empty TRI_btn tri 2 7 0 10 -4034 -1 -1 0 1
;
#X floatatom 166 343 5 0 0 0 - - -, f 5;
#X connect 0 0 7 0;
#X connect 0 0 80 0;
#X connect 1 0 36 0;
#X connect 1 0 80 0;
#X connect 2 0 37 0;
#X connect 2 0 80 0;
#X connect 3 0 34 0;
#X connect 3 0 80 0;
#X connect 4 0 32 0;
#X connect 4 0 80 0;
#X connect 5 0 35 0;
#X connect 5 0 80 0;
#X connect 6 0 33 0;
#X connect 6 0 80 0;
#X connect 8 0 38 0;
#X connect 8 0 80 0;
#X connect 9 0 39 0;
#X connect 10 0 41 0;
#X connect 12 0 15 0;
#X connect 12 0 16 0;
#X connect 13 0 12 0;
#X connect 14 0 13 0;
#X connect 14 1 12 1;
#X connect 16 0 17 0;
#X connect 16 0 19 0;
#X connect 18 0 24 0;
#X connect 19 0 18 0;
#X connect 19 0 21 0;
#X connect 20 0 14 0;
#X connect 22 0 24 1;
#X connect 24 0 22 0;
#X connect 24 0 23 0;
#X connect 24 0 25 0;
#X connect 24 0 77 0;
#X connect 25 0 26 0;
#X connect 25 0 27 0;
#X connect 28 0 29 0;
#X connect 29 0 30 0;
#X connect 29 0 31 0;
#X connect 30 0 13 0;
#X connect 31 0 39 1;
#X connect 32 0 9 0;
#X connect 33 0 9 0;
#X connect 34 0 9 0;
#X connect 35 0 9 0;
#X connect 36 0 9 0;
#X connect 37 0 9 0;
#X connect 38 0 9 0;
#X connect 39 0 40 0;
#X connect 40 0 81 1;
#X connect 41 0 28 0;
#X connect 42 0 64 1;
#X connect 43 0 66 1;
#X connect 44 0 63 1;
#X connect 45 0 65 1;
#X connect 46 0 68 1;
#X connect 47 0 70 1;
#X connect 48 0 67 1;
#X connect 49 0 69 1;
#X connect 50 0 60 1;
#X connect 51 0 62 1;
#X connect 52 0 59 1;
#X connect 53 0 61 1;
#X connect 54 0 72 1;
#X connect 55 0 74 1;
#X connect 56 0 71 1;
#X connect 57 0 73 1;
#X connect 58 0 42 0;
#X connect 58 1 43 0;
#X connect 58 2 44 0;
#X connect 58 3 45 0;
#X connect 58 4 46 0;
#X connect 58 5 47 0;
#X connect 58 6 48 0;
#X connect 58 7 49 0;
#X connect 58 8 50 0;
#X connect 58 9 51 0;
#X connect 58 10 52 0;
#X connect 58 11 53 0;
#X connect 58 12 54 0;
#X connect 58 13 55 0;
#X connect 58 14 56 0;
#X connect 58 15 57 0;
#X connect 59 0 86 0;
#X connect 60 0 86 0;
#X connect 61 0 86 0;
#X connect 62 0 86 0;
#X connect 63 0 86 0;
#X connect 64 0 86 0;
#X connect 65 0 86 0;
#X connect 66 0 86 0;
#X connect 67 0 86 0;
#X connect 68 0 86 0;
#X connect 69 0 86 0;
#X connect 70 0 86 0;
#X connect 71 0 86 0;
#X connect 72 0 86 0;
#X connect 73 0 86 0;
#X connect 74 0 86 0;
#X connect 75 0 64 0;
#X connect 75 1 66 0;
#X connect 75 2 63 0;
#X connect 75 3 65 0;
#X connect 75 4 68 0;
#X connect 75 5 70 0;
#X connect 75 6 67 0;
#X connect 75 7 69 0;
#X connect 75 8 60 0;
#X connect 75 9 62 0;
#X connect 75 10 59 0;
#X connect 75 11 61 0;
#X connect 75 12 72 0;
#X connect 75 13 74 0;
#X connect 75 14 71 0;
#X connect 75 15 73 0;
#X connect 76 0 75 0;
#X connect 77 0 79 0;
#X connect 77 0 82 0;
#X connect 78 0 83 0;
#X connect 78 0 58 0;
#X connect 81 0 78 1;
#X connect 82 0 81 0;
#X connect 82 1 78 0;
#X connect 83 0 85 0;
#X connect 83 1 84 0;
#X connect 87 0 9 0;
#X connect 89 0 90 0;
#X connect 89 0 87 0;
#X connect 89 0 80 0;
#X restore 791 174 pd basssequencer;
#N canvas 1603 453 1914 464 tempoNvol 1;
#X obj 198 37 tgl 25 0 empty DP_left left 0 -6 0 8 -195568 -1 -1 0
1;
#X obj 120 37 tgl 25 0 empty DP_down down 0 -6 0 8 -195568 -1 -1 0
1;
#X obj 145 37 tgl 25 0 empty DP_up up 0 -6 0 8 -195568 -1 -1 0 1;
#X obj 223 37 tgl 25 0 empty DP_right DP_right 0 -6 0 8 -195568 -1
-1 0 1;
#X obj 120 237 tgl 15 0 empty grn_btn_4 sn 17 7 0 10 -262144 -1 -1
0 2;
#X obj 583 256 tgl 15 0 empty grn_btn_1 auxPerc 17 7 0 10 -262144 -1
-1 0 4;
#X floatatom 201 344 5 0 0 3 KickVelocity - KickVelocity, f 5;
#X floatatom 505 344 5 0 0 3 miscVelocity - miscVelocity, f 5;
#X obj 274 238 tgl 15 0 empty grn_btn_3 k 17 7 0 10 -262144 -1 -1 0
1;
#X floatatom 43 344 5 0 0 3 snVelocity - snVelocity, f 5;
#X floatatom 337 344 5 0 0 3 hhVelocity - hhVelocity, f 5;
#X floatatom 85 286 5 0 0 0 - - -, f 5;
#X obj 419 243 tgl 15 0 empty grn_btn_2 hh 17 7 0 10 -262144 -1 -1
0 3;
#X floatatom 548 314 5 0 0 0 - - -, f 5;
#X obj 750 225 tgl 15 0 empty BassGZdown BassGZdown 17 7 0 10 -262144
-1 -1 0 1;
#X floatatom 675 341 5 0 0 3 bassVol - bassVol, f 5;
#X obj 775 275 tgl 15 0 BassGZdown-inv empty BassGZdown-inv 17 7 0
10 -262144 -1 -1 1 1;
#X obj 444 17 tgl 15 0 empty BassGZdown-inv BassGZdown-inv 17 7 0 10
-262144 -1 -1 1 1;
#X obj 454 37 tgl 15 0 empty drumsONinv DrumONinv 17 7 0 10 -262144
-1 -1 1 1;
#X floatatom 410 102 5 0 0 1 tempo_BPM - bpmmm, f 5;
#X obj 775 249 ToggleInvert;
#X obj 548 283 Val-incdec;
#X obj 505 256 Val-incdec;
#X obj 384 269 Val-incdec;
#X obj 339 242 Val-incdec;
#X obj 85 264 Val-incdec;
#X obj 40 235 Val-incdec;
#X obj 172 106 f;
#X obj 204 105 f;
#X floatatom 384 295 5 0 0 0 - - -, f 5;
#X obj 239 267 Val-incdec;
#X obj 196 240 Val-incdec;
#X obj 693 261 Val-incdec;
#X obj 672 236 Val-incdec;
#X obj 410 78 Tempo-incdec;
#X floatatom 720 301 5 0 0 0 - - -, f 5;
#X connect 0 0 28 0;
#X connect 1 0 27 0;
#X connect 2 0 27 0;
#X connect 3 0 28 0;
#X connect 4 0 25 1;
#X connect 4 0 26 1;
#X connect 5 0 21 1;
#X connect 5 0 22 1;
#X connect 8 0 31 1;
#X connect 8 0 30 1;
#X connect 12 0 23 1;
#X connect 12 0 24 1;
#X connect 14 0 20 0;
#X connect 14 0 32 1;
#X connect 14 0 33 1;
#X connect 17 0 34 1;
#X connect 18 0 34 1;
#X connect 20 0 16 0;
#X connect 21 0 13 0;
#X connect 22 0 7 0;
#X connect 23 0 29 0;
#X connect 24 0 10 0;
#X connect 25 0 11 0;
#X connect 26 0 9 0;
#X connect 27 0 22 0;
#X connect 27 0 24 0;
#X connect 27 0 26 0;
#X connect 27 0 31 0;
#X connect 27 0 33 0;
#X connect 27 0 34 0;
#X connect 28 0 21 0;
#X connect 28 0 23 0;
#X connect 28 0 25 0;
#X connect 28 0 30 0;
#X connect 28 0 32 0;
#X connect 31 0 6 0;
#X connect 32 0 35 0;
#X connect 33 0 15 0;
#X connect 34 0 19 0;
#X restore 825 220 pd tempoNvol;
#X connect 0 0 9 0;
#X connect 1 0 11 0;
#X connect 2 0 7 0;
#X connect 3 0 33 0;
#X connect 7 0 8 0;
#X connect 8 0 22 0;
#X connect 9 0 10 0;
#X connect 10 0 31 0;
#X connect 11 0 12 0;
#X connect 12 0 24 0;
#X connect 13 0 31 1;
#X connect 14 0 24 1;
#X connect 15 0 22 1;
#X connect 16 0 14 0;
#X connect 17 0 13 0;
#X connect 18 0 15 0;
#X connect 19 0 5 1;
#X connect 20 0 4 1;
#X connect 21 0 6 1;
#X connect 22 0 6 0;
#X connect 23 0 24 1;
#X connect 24 0 5 0;
#X connect 27 0 22 1;
#X connect 28 0 51 0;
#X connect 29 0 49 0;
#X connect 30 0 52 0;
#X connect 31 0 4 0;
#X connect 33 0 34 0;
#X connect 34 0 37 0;
#X connect 35 0 39 0;
#X connect 36 0 32 1;
#X connect 37 0 32 0;
#X connect 38 0 50 0;
#X connect 39 0 37 1;
#X connect 40 0 37 1;
#X connect 42 0 43 0;
#X connect 43 0 41 2;
#X connect 44 0 47 0;
#X connect 45 0 46 0;
#X connect 46 0 44 0;
#X connect 48 0 41 1;
#X connect 49 0 6 2;
#X connect 50 0 32 2;
#X connect 51 0 5 2;
#X connect 52 0 4 2;
#X connect 53 0 41 0;
#X restore 708 38 pd deetszz;
#N canvas 2563 86 954 463 ps3usbstuff 0;
#X obj 761 18 tgl 50 1 empty DWN dpad_down 2 7 0 10 -128992 -1 -1 0
1;
#X obj 456 103 tgl 50 1 empty SLCT select 2 7 0 10 -128992 -1 -1 0
1;
#X obj 813 69 tgl 50 1 empty LT dpad_L 2 7 0 10 -128992 -1 -1 0 1;
#X obj 765 123 tgl 50 1 empty UP dpad_up 2 7 0 10 -128992 -1 -1 0 1
;
#X obj 61 18 tgl 50 1 empty X_btn X 2 7 0 10 -203904 -1 -1 0 1;
#X obj 10 68 tgl 50 1 empty CIRC_btn circ 2 7 0 10 -257985 -1 -1 0
1;
#X obj 111 68 tgl 50 1 empty SQ_btn square 2 7 0 10 -261234 -1 -1 0
1;
#X obj 61 118 tgl 50 1 empty TRI_btn tri 2 7 0 10 -4034 -1 -1 0 1;
#X obj 550 16 vsl 15 128 -255 0 0 0 empty yax-gui2 empty 0 -9 0 10
-262144 -1 -1 11754 1;
#X obj 493 74 hsl 128 15 0 255 0 0 empty X-AXIS empty -2 -8 0 10 -262144
-1 -1 12700 1;
#X obj 343 16 vsl 15 128 -255 0 0 0 empty gzax-gui2 empty 0 -9 0 10
-262144 -1 -1 6325 1;
#X obj 286 74 hsl 128 15 0 255 0 0 empty Z-AXIS empty -2 -8 0 10 -262144
-1 -1 5180 1;
#X obj 407 103 tgl 50 1 empty STRT start 2 7 0 10 -128992 -1 -1 0 1
;
#X obj 358 24 tgl 50 1 empty J2 joystick_2 0 70 0 10 -128992 -1 -1
0 1;
#X obj 710 71 tgl 50 1 empty RT dpad_R 2 7 0 10 -128992 -1 -1 0 1;
#X obj 210 184 tgl 50 1 empty L3 L3 17 7 0 10 -128992 -1 -1 0 1;
#X obj 500 24 tgl 50 1 empty J1 joystick_1 -10 70 0 10 -128992 -1 -1
0 1;
#X obj 633 196 tgl 50 1 empty R3 R3 17 7 0 10 -128992 -1 -1 0 1;
#X obj 633 146 tgl 50 1 empty R4 R4 17 7 0 10 -128992 -1 -1 0 1;
#X obj 210 134 tgl 50 1 empty L4 L4 17 7 0 10 -128992 -1 -1 0 1;
#X obj 64 393 tgl 50 1 empty DP_down dpad_down 2 7 0 10 -128992 -1
-1 0 1;
#X obj 395 309 tgl 50 1 empty SLCT_2 select 2 7 0 10 -128992 -1 -1
0 1;
#X obj 14 343 tgl 50 1 empty DP_left dpad_L 2 7 0 10 -128992 -1 -1
0 1;
#X obj 64 293 tgl 50 1 empty DP_up dpad_up 2 7 0 10 -128992 -1 -1 0
1;
#X obj 763 394 tgl 50 1 empty grn_btn_3 b3 2 7 0 10 -4034 -1 -1 0 1
;
#X obj 813 344 tgl 50 1 empty grn_btn_2 b2 2 7 0 10 -4034 -1 -1 0 1
;
#X obj 713 345 tgl 50 1 empty grn_btn_4 b4 2 7 0 10 -4034 -1 -1 0 1
;
#X obj 762 295 tgl 50 1 empty grn_btn_1 b1 2 7 0 10 -4034 -1 -1 0 1
;
#X obj 338 309 vsl 15 128 -255 0 0 0 empty yax-gui empty 0 -9 0 10
-262144 -1 -1 6375 1;
#X obj 281 367 hsl 128 15 0 255 0 0 empty X-AXIS_2 empty -2 -8 0 10
-262144 -1 -1 6325 1;
#X obj 543 308 vsl 15 128 -255 0 0 0 empty gzax-gui empty 0 -9 0 10
-262144 -1 -1 6375 1;
#X obj 486 366 hsl 128 15 0 255 0 0 empty Z-AXIS_2 empty -2 -8 0 10
-262144 -1 -1 6325 1;
#X obj 445 309 tgl 50 1 empty STRT_2_2 start 2 7 0 10 -128992 -1 -1
0 1;
#X obj 493 381 tgl 50 1 empty j2_btn joystick_2 0 70 0 10 -128992 -1
-1 0 1;
#X obj 114 343 tgl 50 1 empty DP_right dpad_R 2 7 0 10 -128992 -1 -1
0 1;
#X obj 633 246 tgl 50 1 empty R2 R2 17 7 0 10 -128992 -1 -1 0 1;
#X obj 353 382 tgl 50 1 empty j1_btn joystick_1 -10 70 0 10 -128992
-1 -1 0 1;
#X obj 633 296 tgl 50 1 empty R1 R1 17 7 0 10 -128992 -1 -1 0 87;
#X obj 210 234 tgl 50 1 empty L2 L2 17 7 0 10 -128992 -1 -1 0 1;
#X obj 210 279 tgl 50 1 empty L1 L1 17 7 0 10 -128992 -1 -1 0 1;
#N canvas 1698 529 954 463 hid-details2 0;
#X floatatom 380 327 6 0 255 0 - - X-AXIS_2, f 6;
#X obj 376 243 tgl 25 0 L1 empty empty 0 -6 0 8 -195568 -1 -1 0 1;
#X floatatom 530 327 6 0 0 0 - - Z-AXIS_2, f 6;
#X floatatom 575 329 6 0 0 0 - - GZ-AXIS_2, f 6;
#X obj 376 218 tgl 25 0 L2 empty empty 0 -6 0 8 -195568 -1 -1 0 1;
#X obj 405 295 tgl 25 0 j1_btn empty empty 0 -6 0 8 -195568 -1 -1 0
1;
#X obj 484 286 tgl 25 0 R1_2 empty empty 0 -6 0 8 -195568 -1 -1 0 1
;
#X obj 484 311 tgl 25 0 L2_2_2 empty empty 0 -6 0 8 -195568 -1 -1 0
1;
#X obj 558 296 tgl 25 0 j2_btn empty empty 0 -6 0 8 -195568 -1 -1 0
1;
#X obj 668 292 tgl 25 0 grn_btn_4 empty empty 0 -6 0 8 -4034 -1 -1
0 1;
#X obj 694 318 tgl 25 0 grn_btn_3 empty empty 0 -6 0 8 -4034 -1 -1
0 1;
#X obj 694 266 tgl 25 0 grn_btn_1 empty grn_btn_1 0 -6 0 8 -4034 -1
-1 0 1;
#X obj 719 292 tgl 25 0 grn_btn_2 empty empty 0 -6 0 8 -4034 -1 -1
0 1;
#X obj 8 325 hid;
#N canvas 2456 505 470 320 open 0;
#X obj 10 277 outlet;
#X text 9 12 You can use the hex values of the USB vendor and product
IDs (it is not case sensitive):;
#X obj 84 64 loadbang;
#X obj 500 16 route /mySlider2;
#X text 254 170 6708:2666;
#X msg 83 136 open 0x6708 0x2666;
#X msg 186 81 loadbang;
#X text 222 134 Radioshack PC Controller;
#X connect 2 0 5 0;
#X connect 5 0 0 0;
#X connect 6 0 5 0;
#X restore 8 253 pd open by vendor/product ID;
#X msg 70 273 info;
#X msg 21 273 print;
#X floatatom 422 327 5 0 0 0 - - Y-AXIS_2, f 5;
#X floatatom 520 107 6 0 0 0 - - X-AXIS, f 6;
#X obj 273 107 tgl 25 0 TRI_btn empty empty 0 -6 0 8 -4034 -1 -1 0
1;
#X floatatom 380 107 6 0 0 0 - - Z-AXIS, f 6;
#X floatatom 424 107 6 0 0 0 - - GZ-AXIS, f 6;
#X obj 247 82 tgl 25 0 CIRC_btn empty empty 0 -6 0 8 -257985 -1 -1
0 1;
#X obj 273 57 tgl 25 0 X_btn empty empty 0 -6 0 8 -203904 -1 -1 0 1
;
#X obj 298 82 tgl 25 0 SQ_btn empty empty 0 -6 0 8 -261234 -1 -1 0
1;
#X obj 601 176 tgl 25 0 R4 empty empty 0 -6 0 8 -195568 -1 -1 0 1;
#X obj 376 167 tgl 25 0 L4 empty empty 0 -6 0 8 -195568 -1 -1 0 1;
#X obj 601 201 tgl 25 0 R3 empty empty 0 -6 0 8 -195568 -1 -1 0 1;
#X obj 376 192 tgl 25 0 L3 empty empty 0 -6 0 8 -195568 -1 -1 0 1;
#X obj 491 131 tgl 25 0 SLCT empty SLCT 0 -6 0 8 -195568 -1 -1 0 1
;
#X obj 465 131 tgl 25 0 STRT empty STRT 0 -6 0 8 -195568 -1 -1 0 1
;
#X obj 514 59 tgl 25 0 empty empty j3 0 -6 0 8 -195568 -1 -1 0 1;
#X obj 394 59 tgl 25 0 empty empty j4 0 -6 0 8 -195568 -1 -1 0 1;
#X obj 695 106 tgl 25 0 UP empty empty 0 -6 0 8 -195568 -1 -1 0 1;
#X obj 670 82 tgl 25 0 RT empty empty 0 -6 0 8 -195568 -1 -1 0 1;
#X obj 695 55 tgl 25 0 DWN empty empty 0 -6 0 8 -195568 -1 -1 0 1;
#X obj 721 82 tgl 25 0 LT empty empty 0 -6 0 8 -195568 -1 -1 0 1;
#X obj 10 64 hid;
#N canvas 1661 86 470 320 open 0;
#X obj 10 277 outlet;
#X text 9 12 You can use the hex values of the USB vendor and product
IDs (it is not case sensitive):;
#X msg 83 136 open 0x0e8f 0x0003;
#X obj 84 64 loadbang;
#X text 221 134 Sony PLAYSTATION(R)3 Controller;
#X connect 2 0 0 0;
#X connect 3 0 2 0;
#X restore 10 25 pd open by vendor/product ID;
#X msg 95 43 info, f 7;
#X msg 13 183 poll 2;
#X msg 45 44 print;
#X obj 13 163 delay 50 1 msec;
#X obj 13 141 loadbang;
#X floatatom 564 107 5 0 0 0 - - Y-AXIS, f 5;
#X text 20 236 Radioshack PC Controller;
#X text 7 5 Sony PLAYSTATION(R)3 Controller;
#X obj 197 392 route abs key;
#X obj 234 282 tgl 25 0 empty DP_left left 0 -6 0 8 -195568 -1 -1 0
1;
#X obj 263 310 tgl 25 0 empty DP_down down 0 -6 0 8 -195568 -1 -1 0
1;
#X obj 261 256 tgl 25 0 empty DP_up DP_up 0 -6 0 8 -195568 -1 -1 0
1;
#X obj 292 283 tgl 25 0 empty DP_right DP_right 0 -6 0 8 -195568 -1
-1 0 1;
#N canvas 2220 464 880 385 d-pad-map 0;
#X obj 415 286 tgl 15 0 DP_right empty DP_right 17 7 0 10 -262144 -1
-1 0 1;
#X msg 336 254 -1;
#X msg 426 254 1;
#X obj 321 187 sel -1 0 1;
#X obj 359 286 tgl 15 0 DP_left empty DP_left 17 7 0 10 -262144 -1
-1 0 1;
#X msg 370 254 0;
#X obj 193 284 tgl 15 0 DP_down empty DP_down 17 7 0 10 -262144 -1
-1 0 1;
#X obj 127 212 sel -1 0 1;
#X obj 137 284 tgl 15 0 DP_up empty DP_up 17 7 0 10 -262144 -1 -1 0
1;
#X msg 169 252 0;
#X obj 347 40 inlet;
#X obj 139 61 inlet;
#X msg 135 252 1;
#X msg 225 252 -1;
#X connect 1 0 4 0;
#X connect 2 0 0 0;
#X connect 3 0 1 0;
#X connect 3 1 5 0;
#X connect 3 2 2 0;
#X connect 5 0 4 0;
#X connect 5 0 0 0;
#X connect 7 0 12 0;
#X connect 7 1 9 0;
#X connect 7 2 13 0;
#X connect 9 0 8 0;
#X connect 9 0 6 0;
#X connect 10 0 3 0;
#X connect 11 0 7 0;
#X connect 12 0 8 0;
#X connect 13 0 6 0;
#X restore 203 370 pd d-pad-map;
#X obj 329 399 route abs_hat0x abs_hat0y abs_x abs_y abs_z abs_rz;
#X obj 338 366 route btn_4 btn_6 f f btn_10 btn_8 btn_9 btn_11 btn_3
btn_2 btn_0 btn_1 btn_5 btn_7;
#X obj 601 251 tgl 25 0 R1 empty empty 0 -6 0 8 -195568 -1 -1 0 1;
#X obj 601 226 tgl 25 0 R2 empty empty 0 -6 0 8 -195568 -1 -1 0 1;
#X obj 16 89 route abs_z abs_rz abs_x abs_y;
#X obj 303 10 route btn_5 btn_7 btn_0 btn_1 btn_2 btn_3 btn_8 btn_9
btn_10 btn_11 btn_12 btn_13 btn_14 btn_15 btn_4 btn_6;
#X obj 144 69 route key abs;
#X obj 576 419 * -1;
#X obj 477 422 * -1;
#X floatatom 477 441 5 0 0 0 yax-gui - yax-gui, f 5;
#X floatatom 576 438 5 0 0 0 gzax-gui - gzax-gui, f 5;
#X obj 805 151 * -1;
#X floatatom 805 175 5 0 0 0 gzax-gui2 - gzax-gui2, f 5;
#X floatatom 885 104 5 0 0 0 yax-gui2 - yax-gui2, f 5;
#X floatatom 805 132 6 0 0 0 gzax_gui2 GZ-AXIS -, f 6;
#X obj 876 71 * -1;
#X floatatom 873 33 5 0 0 0 - Y-AXIS -, f 5;
#X connect 13 0 47 0;
#X connect 14 0 13 0;
#X connect 15 0 13 0;
#X connect 16 0 13 0;
#X connect 37 0 59 0;
#X connect 38 0 37 0;
#X connect 39 0 37 0;
#X connect 40 0 37 0;
#X connect 40 0 13 0;
#X connect 41 0 37 0;
#X connect 42 0 40 0;
#X connect 43 0 42 0;
#X connect 47 0 53 0;
#X connect 47 1 54 0;
#X connect 53 0 52 1;
#X connect 53 1 52 0;
#X connect 53 2 0 0;
#X connect 53 3 61 0;
#X connect 53 3 17 0;
#X connect 53 4 2 0;
#X connect 53 5 60 0;
#X connect 53 5 3 0;
#X connect 54 0 1 0;
#X connect 54 1 4 0;
#X connect 54 4 5 0;
#X connect 54 5 6 0;
#X connect 54 6 7 0;
#X connect 54 7 8 0;
#X connect 54 8 9 0;
#X connect 54 9 10 0;
#X connect 54 10 11 0;
#X connect 54 11 12 0;
#X connect 54 12 55 0;
#X connect 54 13 56 0;
#X connect 57 0 20 0;
#X connect 57 1 21 0;
#X connect 57 2 18 0;
#X connect 57 3 44 0;
#X connect 58 0 26 0;
#X connect 58 1 28 0;
#X connect 58 2 19 0;
#X connect 58 3 22 0;
#X connect 58 4 23 0;
#X connect 58 5 24 0;
#X connect 58 6 29 0;
#X connect 58 7 30 0;
#X connect 58 8 31 0;
#X connect 58 9 32 0;
#X connect 58 10 33 0;
#X connect 58 11 34 0;
#X connect 58 12 35 0;
#X connect 58 13 36 0;
#X connect 58 14 25 0;
#X connect 58 15 27 0;
#X connect 59 0 58 0;
#X connect 59 1 57 0;
#X connect 60 0 63 0;
#X connect 61 0 62 0;
#X connect 64 0 65 0;
#X connect 67 0 64 0;
#X connect 68 0 66 0;
#X connect 69 0 68 0;
#X restore 394 245 pd hid-details2;
#N canvas 1770 86 954 820 joysticks2 0;
#X floatatom 42 15 5 0 0 0 xax_2 X-AXIS_2 -, f 5;
#X floatatom 257 15 5 0 0 0 yax_2 Y-AXIS_2 -, f 5;
#X floatatom 434 15 5 0 0 0 zas_2 Z-AXIS_2 -, f 5;
#X floatatom 606 15 5 0 0 0 gzas_2 GZ-AXIS_2 -, f 5;
#X obj 576 153 f;
#X obj 606 153 t b f;
#X obj 598 184 *;
#X floatatom 561 216 5 0 0 0 - - -, f 5;
#X obj 598 234 -;
#X floatatom 623 214 5 0 0 0 - - -, f 5;
#X floatatom 608 261 5 0 0 0 - - -, f 5;
#X msg 549 118 -1;
#X msg 684 196 -128;
#X obj 250 305 bendout;
#X obj 229 135 f;
#X floatatom 289 282 5 0 0 0 - - -, f 5;
#X obj 257 135 t b f;
#X obj 250 170 *;
#X floatatom 250 215 5 0 0 0 - - -, f 5;
#X floatatom 203 103 5 0 0 0 - - -, f 5;
#X obj 250 236 -;
#X floatatom 250 283 5 0 0 0 - - -, f 5;
#X obj 203 57 loadbang;
#X msg 203 79 -64;
#X msg 363 192 -8192;
#X msg 367 264 9;
#X obj 364 173 loadbang;
#X floatatom 296 153 5 0 0 0 - - -, f 5;
#X floatatom 205 167 5 0 0 0 - - -, f 5;
#X obj 42 56 - 128;
#X obj 42 84 max;
#X floatatom 93 67 5 0 0 0 - - -, f 5;
#X floatatom 42 107 5 0 0 0 - - -, f 5;
#X obj 42 295 ctlout 1 9;
#X obj 42 248 spigot;
#X obj 93 40 loadbang;
#X floatatom 287 215 5 0 0 0 - - -, f 5;
#X obj 434 68 div 2;
#X obj 549 97 loadbang;
#X obj 684 174 loadbang;
#X floatatom 453 95 5 0 0 0 - - -, f 5;
#X floatatom 81 413 5 0 0 0 xax xaxMIDI -, f 5;
#X obj 476 474 - 128;
#X obj 476 494 * -1;
#X floatatom 476 518 5 0 64 0 - - -, f 5;
#X obj 476 591 max;
#X obj 476 634 spigot;
#X obj 476 732 ctlout 5 2;
#X floatatom 235 413 5 0 0 0 yax Y-AXIS -, f 5;
#X floatatom 613 494 5 0 0 0 - - -, f 5;
#X obj 613 470 - 128;
#X obj 613 592 max;
#X floatatom 644 610 5 0 0 0 - - -, f 5;
#X obj 613 635 spigot;
#X obj 613 735 ctlout 1 2;
#X obj 233 706 ctlout 1 1;
#X obj 194 503 f;
#X obj 235 503 t b f;
#X obj 233 534 *;
#X floatatom 233 579 5 0 0 0 - - -, f 5;
#X obj 233 622 -;
#X obj 155 463 loadbang;
#X obj 628 550 loadbang;
#X obj 233 684 spigot;
#X floatatom 268 520 5 0 0 0 - - -, f 5;
#X floatatom 155 521 5 0 0 0 - - -, f 5;
#X msg 155 485 -0.5;
#X msg 290 577 -127;
#X obj 476 657 vsl 15 64 0 127 0 0 empty empty empty 0 -9 0 10 -262144
-1 -1 0 1;
#X obj 613 657 vsl 15 64 1.27 127 0 0 empty empty empty 0 -9 0 10 -262144
-1 -1 0 1;
#X floatatom 476 413 5 0 0 0 gzas GZ-AXIS -, f 5;
#X floatatom 613 413 5 0 0 0 zas Z-AXIS -, f 5;
#X obj 290 555 loadbang;
#X msg 628 570 0;
#X obj 491 549 loadbang;
#X msg 491 570 0;
#X floatatom 500 609 5 0 0 0 - - -, f 5;
#X obj 233 643 int;
#X floatatom 196 661 5 0 0 0 - - -, f 5;
#X obj 75 222 tgl 15 0 empty drumsONinv DrumONinv 17 7 0 10 -262144
-1 -1 1 1;
#X obj 250 259 spigot;
#X obj 550 304 ctlout 28 9;
#X connect 0 0 29 0;
#X connect 1 0 16 0;
#X connect 2 0 37 0;
#X connect 3 0 5 0;
#X connect 4 0 6 0;
#X connect 5 0 4 0;
#X connect 5 1 6 1;
#X connect 6 0 7 0;
#X connect 6 0 8 0;
#X connect 8 0 10 0;
#X connect 9 0 8 1;
#X connect 11 0 4 0;
#X connect 12 0 9 0;
#X connect 14 0 17 0;
#X connect 14 0 28 0;
#X connect 15 0 13 1;
#X connect 16 0 14 0;
#X connect 16 1 17 1;
#X connect 16 1 27 0;
#X connect 17 0 18 0;
#X connect 18 0 20 0;
#X connect 19 0 14 0;
#X connect 20 0 80 0;
#X connect 21 0 13 0;
#X connect 22 0 23 0;
#X connect 23 0 19 0;
#X connect 24 0 36 0;
#X connect 25 0 15 0;
#X connect 26 0 25 0;
#X connect 26 0 24 0;
#X connect 29 0 30 0;
#X connect 30 0 32 0;
#X connect 31 0 30 1;
#X connect 32 0 34 0;
#X connect 34 0 33 0;
#X connect 35 0 31 0;
#X connect 36 0 20 1;
#X connect 37 0 40 0;
#X connect 38 0 11 0;
#X connect 39 0 12 0;
#X connect 40 0 81 0;
#X connect 42 0 43 0;
#X connect 43 0 44 0;
#X connect 44 0 45 0;
#X connect 45 0 46 0;
#X connect 45 0 76 0;
#X connect 46 0 68 0;
#X connect 48 0 57 0;
#X connect 49 0 51 0;
#X connect 50 0 49 0;
#X connect 51 0 52 0;
#X connect 51 0 53 0;
#X connect 53 0 69 0;
#X connect 56 0 58 0;
#X connect 56 0 65 0;
#X connect 57 0 56 0;
#X connect 57 1 58 1;
#X connect 57 1 64 0;
#X connect 58 0 59 0;
#X connect 59 0 60 0;
#X connect 60 0 77 0;
#X connect 61 0 66 0;
#X connect 62 0 73 0;
#X connect 63 0 55 0;
#X connect 66 0 56 0;
#X connect 67 0 60 1;
#X connect 68 0 47 0;
#X connect 69 0 54 0;
#X connect 70 0 42 0;
#X connect 71 0 50 0;
#X connect 72 0 67 0;
#X connect 73 0 51 1;
#X connect 74 0 75 0;
#X connect 75 0 45 1;
#X connect 77 0 63 0;
#X connect 77 0 78 0;
#X connect 79 0 34 1;
#X connect 79 0 80 1;
#X connect 79 0 46 1;
#X connect 79 0 53 1;
#X connect 79 0 63 1;
#X connect 80 0 21 0;
#X restore 398 189 pd joysticks2;
#X text 744 269 hold for drumseq mode;
#X text 246 406 tempo;
#X text 35 178 modes:;
#X text 27 244 drum sequencer;
#X text 26 269 bass note Sequencer;
#X text 590 303 L#/R#;
#X text 30 205 control mode (no btnHolds);
#X restore 699 127 pd ps3usbstuff;
#N canvas 2529 248 949 450 clockadoodle 1;
#X obj 180 122 tgl 15 0 clockgui empty empty 17 7 0 10 -262144 -1 -1
0 1;
#X obj 180 246 midiout;
#X obj 71 149 select 0 1;
#X msg 71 183 252;
#X msg 108 183 250;
#X msg 180 183 248;
#X obj 180 149 metro 20.8333;
#X floatatom 239 118 5 0 0 0 - - -, f 5;
#X obj 235 93 expr (60000/$f1/24);
#X floatatom 235 66 5 0 0 0 - bpmmm -, f 5;
#X text 176 69 BPM-->;
#X obj 304 240 mod 24;
#X obj 304 265 select 0;
#X obj 304 335 outlet;
#X obj 233 183 int;
#X obj 264 183 + 1;
#X obj 304 290 int;
#X obj 338 290 + 1;
#X obj 304 313 mod 16;
#X msg 381 198 6;
#X msg 425 198 12;
#X msg 475 198 24;
#X obj 381 178 bng 15 250 50 0 empty halftime 1/2 -1 -7 0 10 -262144
-1 -1;
#X obj 425 178 bng 15 250 50 0 empty normaltime normal -10 -7 0 10
-262144 -1 -1;
#X obj 475 178 bng 15 250 50 0 empty doubletime x2 1 -7 0 10 -262144
-1 -1;
#X obj 80 65 tgl 25 0 empty j2_btn j2_btn 0 -6 0 8 -195568 -1 -1 0
1;
#X obj 80 96 togltogl;
#X text 290 62 from TempoNVol;
#X connect 0 0 2 0;
#X connect 0 0 6 0;
#X connect 2 0 3 0;
#X connect 2 1 4 0;
#X connect 3 0 1 0;
#X connect 4 0 1 0;
#X connect 5 0 1 0;
#X connect 6 0 5 0;
#X connect 6 0 14 0;
#X connect 7 0 6 1;
#X connect 8 0 7 0;
#X connect 9 0 8 0;
#X connect 11 0 12 0;
#X connect 12 0 16 0;
#X connect 14 0 15 0;
#X connect 14 0 11 0;
#X connect 15 0 14 1;
#X connect 16 0 17 0;
#X connect 16 0 18 0;
#X connect 17 0 16 1;
#X connect 18 0 13 0;
#X connect 19 0 11 1;
#X connect 20 0 11 1;
#X connect 21 0 11 1;
#X connect 22 0 19 0;
#X connect 23 0 20 0;
#X connect 24 0 21 0;
#X connect 25 0 26 0;
#X connect 26 0 0 0;
#X restore 708 67 pd clockadoodle;
#X floatatom 819 85 5 0 0 1 stepCounter - toStepCounter, f 5;
#N canvas 1603 613 954 464 drumsequencer 0;
#X floatatom 769 377 5 0 0 0 - - -, f 5;
#X obj 769 356 int;
#X text 807 382 active sequencer;
#X msg 797 316 5;
#X obj 619 275 tgl 15 0 empty grn_btn_3 k 17 7 0 10 -262144 -1 -1 0
1;
#X obj 658 275 tgl 15 0 empty grn_btn_4 sn 17 7 0 10 -262144 -1 -1
0 2;
#X obj 691 275 tgl 15 0 empty grn_btn_2 hh 17 7 0 10 -262144 -1 -1
0 3;
#X obj 731 275 tgl 15 0 empty grn_btn_1 auxPerc 17 7 0 10 -262144 -1
-1 0 4;
#X msg 701 316 2;
#X msg 831 316 6;
#X msg 760 316 4;
#X msg 729 316 3;
#X floatatom 619 339 5 0 0 0 - - -, f 5;
#X obj 619 316 sel 0;
#X msg 667 316 1;
#X obj 801 275 tgl 15 0 empty empty empty 17 7 0 10 -262144 -1 -1 0
1;
#X obj 831 275 tgl 15 0 empty empty bassSQ 17 7 0 10 -262144 -1 -1
0 1;
#X obj 56 132 tgl 50 1 empty L3 L3 17 7 0 10 -128992 -1 -1 0 1;
#X obj 305 30 tgl 50 1 empty R3 R3 17 7 0 10 -128992 -1 -1 0 1;
#X obj 355 30 tgl 50 0 empty R4 R4 17 7 0 10 -128992 -1 -1 0 4;
#X obj 255 30 tgl 50 1 empty R2 R2 17 7 0 10 -128992 -1 -1 0 1;
#X obj 205 30 tgl 50 1 empty R1 R1 17 7 0 10 -128992 -1 -1 0 1;
#X obj 56 82 tgl 50 1 empty L2 L2 17 7 0 10 -128992 -1 -1 0 1;
#X obj 56 32 tgl 50 1 empty L1 L1 17 7 0 10 -128992 -1 -1 0 1;
#X obj 66 385 tgl 15 0 empty grn_btn_3 k 17 7 0 10 -262144 -1 -1 0
1;
#X msg 106 32 0;
#X msg 205 80 1;
#X msg 355 80 4;
#X msg 305 80 3;
#X msg 255 80 2;
#X msg 106 82 4;
#X msg 106 132 8;
#X msg 106 183 12;
#X obj 56 182 tgl 50 1 empty L4 L4 17 7 0 10 -128992 -1 -1 0 1;
#X obj 147 302 +;
#X floatatom 33 426 5 0 0 3 kickStep_toggle - kickStep_toggle, f 5
;
#X obj 122 255 f, f 2;
#X obj 905 198 + 1;
#X floatatom 815 203 5 0 0 0 - - -, f 5;
#X obj 855 198 f;
#X floatatom 157 201 5 0 0 0 - - -, f 5;
#X obj 33 402 spigot;
#X floatatom 205 150 5 0 0 0 - - -, f 5;
#X floatatom 904 238 5 0 0 2 R_btns R_btns_on -, f 5;
#X floatatom 621 22 5 0 0 2 L_btns L_btns_on -, f 5;
#X obj 633 75 +;
#X obj 621 50 f, f 2;
#X obj 658 50 t b f;
#X floatatom 592 93 5 0 0 0 - - -, f 5;
#X obj 633 95 == 2;
#X floatatom 592 113 5 0 0 0 - - -, f 5;
#X obj 633 137 sel 1 0;
#X obj 633 117 change;
#X obj 855 218 mod 2;
#X obj 855 238 sel 1;
#X obj 810 244 tgl 15 0 empty empty empty 17 7 0 10 -262144 -1 -1 1
1;
#X obj 402 402 spigot;
#X obj 295 402 spigot;
#X obj 153 402 spigot;
#X obj 186 385 tgl 15 0 empty grn_btn_4 sn 17 7 0 10 -262144 -1 -1
0 2;
#X obj 328 385 tgl 15 0 empty grn_btn_2 hh 17 7 0 10 -262144 -1 -1
0 3;
#X obj 435 385 tgl 15 0 empty grn_btn_1 auxPerc 17 7 0 10 -262144 -1
-1 0 4;
#X obj 769 397 > 0;
#X floatatom 769 417 5 0 0 0 - - -, f 5;
#X obj 769 437 tgl 15 0 areAnyDrumsOn empty areAnyDrumsOn 17 7 0 10
-262144 -1 -1 0 1;
#X obj 679 387 tgl 15 0 empty areAnyDrumsOn rAreAnyDrumsOn 17 7 0 10
-262144 -1 -1 0 1;
#X floatatom 295 426 5 0 0 3 HHStep_toggle - HHStep_toggle, f 5;
#X floatatom 402 426 5 0 0 3 auxStep_toggle - auxStep_toggle, f 5
;
#X floatatom 153 426 5 0 0 3 snareStep_toggle - snareStep_toggle,
f 5;
#X obj 152 255 t b f;
#X floatatom 419 80 5 0 0 3 R1_btn - R1_btn, f 5;
#X floatatom 460 80 5 0 0 3 R2_btn - R2_btn, f 5;
#X floatatom 504 80 5 0 0 3 R3_btn - R3_btn, f 5;
#X floatatom 548 80 5 0 0 3 R4_btn - R4_btn, f 5;
#X floatatom 658 22 5 0 0 2 R1_btn R1_btn -, f 5;
#X floatatom 747 18 5 0 0 2 R2_btn R2_btn -, f 5;
#X floatatom 834 22 5 0 0 2 R3_btn R3_btn -, f 5;
#X floatatom 873 22 5 0 0 2 R4_btn R4_btn -, f 5;
#X floatatom 592 135 5 0 0 0 - - -, f 5;
#X floatatom 255 150 5 0 0 0 - - -, f 5;
#X floatatom 305 150 5 0 0 0 - - -, f 5;
#X floatatom 355 150 5 0 0 0 - - -, f 5;
#X obj 632 223 tgl 15 0 empty empty empty 17 7 0 10 -262144 -1 -1 0
1;
#X obj 727 75 +;
#X obj 727 51 f, f 2;
#X obj 748 50 t b f;
#X obj 727 95 == 2;
#X obj 727 137 sel 1 0;
#X obj 727 117 change;
#X obj 873 75 +;
#X obj 873 51 f, f 2;
#X obj 897 50 t b f;
#X obj 873 95 == 2;
#X obj 873 137 sel 1 0;
#X obj 873 117 change;
#X obj 813 75 +;
#X obj 813 51 f, f 2;
#X obj 837 50 t b f;
#X obj 813 95 == 2;
#X obj 813 137 sel 1 0;
#X obj 813 117 change;
#X floatatom 692 135 5 0 0 0 - - -, f 5;
#X floatatom 779 135 5 0 0 0 - - -, f 5;
#X floatatom 866 160 5 0 0 0 - - -, f 5;
#X floatatom 437 201 6 0 255 2 X-AXIS_2 X-AXIS_2 -, f 6;
#X floatatom 361 200 5 0 0 2 Y-AXIS_2 Y-AXIS_2 -, f 5;
#X msg 362 330 0;
#X msg 392 330 4;
#X msg 420 330 8;
#X msg 448 330 12;
#X floatatom 415 359 5 0 0 0 - - -, f 5;
#X floatatom 497 250 5 0 0 0 - - -, f 5;
#X floatatom 361 250 5 0 0 0 - - -, f 5;
#X floatatom 437 250 5 0 0 0 - - -, f 5;
#X floatatom 555 250 5 0 0 0 - - -, f 5;
#X obj 497 270 change;
#X obj 437 270 change;
#X floatatom 517 330 5 0 0 3 L_btns - L_btns_on, f 5;
#X obj 361 270 change;
#X obj 555 270 change;
#X obj 437 227 > 245;
#X obj 497 227 > 245;
#X obj 361 227 < 15;
#X obj 558 227 < 15;
#X obj 361 296 t f b;
#X obj 437 296 t f b;
#X obj 555 296 t f b;
#X obj 497 296 t f b;
#X obj 608 365 select 0 1;
#X obj 608 387 bng 15 250 50 0 empty empty empty 17 7 0 10 -262144
-1 -1;
#X obj 644 387 bng 15 250 50 0 empty empty empty 17 7 0 10 -262144
-1 -1;
#X msg 644 404 0;
#X msg 608 404 1;
#X floatatom 644 424 5 0 0 0 - - -, f 5;
#X floatatom 608 424 5 0 0 0 - - -, f 5;
#X obj 624 446 tgl 15 0 drumsONinv empty DrumONinv 17 7 0 10 -262144
-1 -1 1 1;
#X connect 0 0 62 0;
#X connect 1 0 0 0;
#X connect 3 0 1 0;
#X connect 4 0 14 0;
#X connect 4 0 13 0;
#X connect 5 0 8 0;
#X connect 5 0 13 0;
#X connect 6 0 11 0;
#X connect 6 0 13 0;
#X connect 7 0 10 0;
#X connect 7 0 13 0;
#X connect 8 0 1 0;
#X connect 9 0 1 0;
#X connect 10 0 1 0;
#X connect 11 0 1 0;
#X connect 12 0 1 0;
#X connect 13 0 12 0;
#X connect 14 0 1 0;
#X connect 15 0 3 0;
#X connect 15 0 13 0;
#X connect 16 0 9 0;
#X connect 17 0 31 0;
#X connect 18 0 28 0;
#X connect 18 0 72 0;
#X connect 19 0 27 0;
#X connect 19 0 73 0;
#X connect 20 0 29 0;
#X connect 20 0 71 0;
#X connect 21 0 26 0;
#X connect 21 0 70 0;
#X connect 22 0 30 0;
#X connect 23 0 25 0;
#X connect 24 0 41 1;
#X connect 25 0 40 0;
#X connect 26 0 42 0;
#X connect 27 0 81 0;
#X connect 28 0 80 0;
#X connect 29 0 79 0;
#X connect 30 0 40 0;
#X connect 31 0 40 0;
#X connect 32 0 40 0;
#X connect 33 0 32 0;
#X connect 34 0 41 0;
#X connect 34 0 58 0;
#X connect 34 0 57 0;
#X connect 34 0 56 0;
#X connect 36 0 34 0;
#X connect 37 0 39 1;
#X connect 39 0 37 0;
#X connect 39 0 38 0;
#X connect 39 0 53 0;
#X connect 41 0 35 0;
#X connect 42 0 69 0;
#X connect 44 0 46 0;
#X connect 44 0 84 0;
#X connect 44 0 96 0;
#X connect 44 0 90 0;
#X connect 45 0 48 0;
#X connect 45 0 49 0;
#X connect 46 0 45 0;
#X connect 47 0 46 0;
#X connect 47 1 45 1;
#X connect 49 0 50 0;
#X connect 49 0 52 0;
#X connect 51 0 39 0;
#X connect 51 0 42 0;
#X connect 52 0 51 0;
#X connect 52 0 78 0;
#X connect 53 0 54 0;
#X connect 53 0 55 0;
#X connect 56 0 67 0;
#X connect 57 0 66 0;
#X connect 58 0 68 0;
#X connect 59 0 58 1;
#X connect 60 0 57 1;
#X connect 61 0 56 1;
#X connect 62 0 63 0;
#X connect 63 0 64 0;
#X connect 65 0 128 0;
#X connect 69 0 36 0;
#X connect 69 1 34 1;
#X connect 74 0 47 0;
#X connect 75 0 85 0;
#X connect 76 0 97 0;
#X connect 77 0 91 0;
#X connect 79 0 69 0;
#X connect 80 0 69 0;
#X connect 81 0 69 0;
#X connect 83 0 86 0;
#X connect 84 0 83 0;
#X connect 85 0 84 0;
#X connect 85 1 83 1;
#X connect 86 0 88 0;
#X connect 87 0 79 0;
#X connect 88 0 87 0;
#X connect 88 0 101 0;
#X connect 89 0 92 0;
#X connect 90 0 89 0;
#X connect 91 0 90 0;
#X connect 91 1 89 1;
#X connect 92 0 94 0;
#X connect 93 0 81 0;
#X connect 94 0 93 0;
#X connect 94 0 103 0;
#X connect 95 0 98 0;
#X connect 96 0 95 0;
#X connect 97 0 96 0;
#X connect 97 1 95 1;
#X connect 98 0 100 0;
#X connect 99 0 80 0;
#X connect 100 0 99 0;
#X connect 100 0 102 0;
#X connect 104 0 120 0;
#X connect 104 0 123 0;
#X connect 105 0 121 0;
#X connect 105 0 122 0;
#X connect 106 0 110 0;
#X connect 107 0 110 0;
#X connect 108 0 110 0;
#X connect 109 0 110 0;
#X connect 110 0 36 1;
#X connect 111 0 115 0;
#X connect 112 0 118 0;
#X connect 113 0 116 0;
#X connect 114 0 119 0;
#X connect 115 0 127 0;
#X connect 116 0 125 0;
#X connect 118 0 124 0;
#X connect 119 0 126 0;
#X connect 120 0 113 0;
#X connect 121 0 111 0;
#X connect 122 0 112 0;
#X connect 123 0 114 0;
#X connect 124 0 117 0;
#X connect 124 1 106 0;
#X connect 125 0 117 0;
#X connect 125 1 107 0;
#X connect 126 0 117 0;
#X connect 126 1 109 0;
#X connect 127 0 117 0;
#X connect 127 1 108 0;
#X connect 128 0 129 0;
#X connect 128 1 130 0;
#X connect 129 0 132 0;
#X connect 130 0 131 0;
#X connect 131 0 133 0;
#X connect 132 0 134 0;
#X connect 133 0 135 0;
#X connect 134 0 135 0;
#X restore 708 15 pd drumsequencer;
#X floatatom 697 239 5 0 0 0 - - -, f 5;
#X obj 697 201 bng 15 250 50 0 empty mute_Ch9 mute_Ch9 17 7 0 10 -262144
-1 -1;
#X msg 697 218 0;
#X obj 697 258 ctlout 7 9;
#X obj 699 309 bng 15 250 50 0 empty L3 MIDI_PANIC 17 7 0 10 -262144
-1 -1;
#X floatatom 699 327 5 0 0 0 - - -, f 5;
#X obj 699 352 ctlout 123 9;
#X obj 794 194 bng 15 250 50 0 halftime empty 1/2 -1 -7 0 10 -262144
-1 -1;
#X obj 855 194 bng 15 250 50 0 normaltime empty normal -10 -7 0 10
-262144 -1 -1;
#X obj 915 194 bng 15 250 50 0 doubletime empty x2 1 -7 0 10 -262144
-1 -1;
#X obj 853 64 tgl 15 0 empty clockgui Clockk 17 7 0 10 -262144 -1 -1
0 1;
#X floatatom 231 528 5 0 0 2 snVelocitysnareVol snVelocity -, f 5
;
#X floatatom 63 527 5 0 0 2 KickVelocity KickVelocity -, f 5;
#X floatatom 434 528 5 0 0 2 hhVelocity hhVelocity -, f 5;
#X floatatom 628 528 5 0 0 2 miscVelocity miscVelocity -, f 5;
#X floatatom 786 529 5 0 0 0 bassVol bassVol -, f 5;
#X text 779 263 mutes ch9 on fluidsynth;
#X connect 0 0 80 0;
#X connect 1 0 81 0;
#X connect 2 0 82 0;
#X connect 3 0 83 0;
#X connect 4 0 84 0;
#X connect 5 0 85 0;
#X connect 6 0 86 0;
#X connect 7 0 89 0;
#X connect 8 0 87 0;
#X connect 9 0 88 0;
#X connect 10 0 90 0;
#X connect 11 0 91 0;
#X connect 12 0 92 0;
#X connect 13 0 93 0;
#X connect 14 0 94 0;
#X connect 15 0 95 0;
#X connect 99 0 100 0;
#X connect 102 0 105 0;
#X connect 103 0 104 0;
#X connect 104 0 102 0;
#X connect 106 0 107 0;
#X connect 107 0 108 0;
