#N canvas 2362 97 954 464 10;
#X obj 104 223 f;
#X obj 182 223 +;
#X obj 170 180 t b f;
#X obj 170 134 spigot;
#X obj 182 285 outlet;
#X obj 104 153 loadbang;
#X obj 143 48 inlet;
#X obj 203 50 inlet;
#X obj 143 91 change;
#X obj 143 113 sel 0;
#X text 69 48 -1 \, 0 \, or 1;
#X text 239 50 toggle;
#X obj 120 284 moses 301;
#X obj 120 260 moses 20;
#X obj 256 175 inlet;
#X text 303 176 Direct in for BPM;
#X msg 104 179 120;
#X connect 0 0 1 0;
#X connect 1 0 4 0;
#X connect 1 0 13 0;
#X connect 2 0 0 0;
#X connect 2 1 1 1;
#X connect 3 0 2 0;
#X connect 5 0 16 0;
#X connect 6 0 8 0;
#X connect 7 0 3 1;
#X connect 8 0 9 0;
#X connect 9 1 3 0;
#X connect 12 0 0 1;
#X connect 13 1 12 0;
#X connect 14 0 0 0;
#X connect 16 0 0 0;
