#N canvas 2406 613 954 464 10;
#X obj 93 223 f;
#X obj 182 223 +;
#X obj 170 180 t b f;
#X msg 93 179 64;
#X obj 170 134 spigot;
#X obj 182 296 outlet;
#X obj 93 157 loadbang;
#X obj 143 48 inlet;
#X obj 203 50 inlet;
#X obj 143 91 change;
#X obj 143 113 sel 0;
#X text 239 50 toggle;
#X text 69 48 -1 \, 0 \, or 1;
#X obj 108 256 moses 0;
#X obj 109 280 moses 128;
#X connect 0 0 1 0;
#X connect 1 0 5 0;
#X connect 1 0 13 0;
#X connect 2 0 0 0;
#X connect 2 1 1 1;
#X connect 3 0 0 0;
#X connect 4 0 2 0;
#X connect 6 0 3 0;
#X connect 7 0 9 0;
#X connect 8 0 4 1;
#X connect 9 0 10 0;
#X connect 10 1 4 0;
#X connect 13 1 14 0;
#X connect 14 0 0 1;
